<svg width="60" height="60" viewBox="0 0 60 60" fill="none" xmlns="http://www.w3.org/2000/svg">
<path d="M4.87068 47.3724C4.44027 47.1028 3.95384 46.9353 3.44868 46.8828C3.21588 46.86 2.96868 46.866 2.77548 47.0028C2.7542 47.0146 2.73657 47.0321 2.72451 47.0532C2.71245 47.0744 2.70642 47.0984 2.70708 47.1228C2.71763 47.1578 2.74069 47.1877 2.77188 47.2068C3.07428 47.4215 3.42947 47.5496 3.79927 47.5776C4.16907 47.6055 4.53949 47.532 4.87068 47.3652" fill="#E0E0E0"/>
<path d="M4.83479 47.3328C4.50517 47.0908 4.19757 46.8202 3.91559 46.524C3.63307 46.2262 3.43434 45.859 3.33959 45.4596C3.32063 45.3999 3.31489 45.3368 3.32276 45.2746C3.33063 45.2124 3.35194 45.1527 3.38519 45.0996C4.11719 45.6708 4.69319 46.4112 4.83479 47.3292" fill="#E0E0E0"/>
<path d="M4.86371 47.3676C4.79542 46.968 4.80111 46.5592 4.88051 46.1616C4.96271 45.7611 5.19171 45.4058 5.52251 45.1656C5.64971 45.462 5.59451 45.8028 5.50571 46.1112C5.36719 46.5899 5.152 47.043 4.86851 47.4528" fill="#E0E0E0"/>
<path d="M5.58137 48.654C5.15054 48.723 4.752 48.9248 4.44137 49.2312C4.11375 49.5283 3.88579 49.9193 3.78857 50.3508C4.21577 50.3244 4.57817 50.0232 4.84097 49.6848C5.10377 49.3464 5.28617 48.9756 5.57537 48.66" fill="#E0E0E0"/>
<path d="M5.73724 48.8592C5.56562 48.424 5.50548 47.9527 5.56227 47.4883C5.61906 47.0239 5.79099 46.5811 6.06244 46.2C6.30964 47.082 6.21844 48.0804 5.73724 48.8604" fill="#E0E0E0"/>
<path d="M6.68542 49.9884C6.28724 49.9644 5.89075 50.0577 5.54502 50.2567C5.19928 50.4557 4.91948 50.7517 4.74022 51.108C4.72475 51.13 4.71546 51.1558 4.71335 51.1826C4.71124 51.2094 4.71638 51.2363 4.72822 51.2604C4.74497 51.2767 4.76538 51.2887 4.78773 51.2953C4.81008 51.302 4.83371 51.3032 4.85662 51.2988C5.23942 51.2736 5.57662 51.0432 5.85982 50.7804C6.14302 50.5176 6.38422 50.214 6.69982 49.9872" fill="#E0E0E0"/>
<path d="M6.65518 49.9272C6.45086 49.27 6.43837 48.5681 6.61918 47.904C6.68998 47.6436 6.80998 47.3688 7.05118 47.2464C7.06091 47.2403 7.07176 47.2362 7.0831 47.2343C7.09443 47.2325 7.10602 47.2329 7.11718 47.2356C7.13695 47.2455 7.15204 47.2627 7.15918 47.2836C7.24002 47.466 7.27464 47.6655 7.25998 47.8644C7.24622 48.0621 7.21612 48.2584 7.16998 48.4512C7.09318 48.8112 7.04998 49.1964 6.85678 49.506C6.81215 49.5811 6.77208 49.6589 6.73678 49.7388C6.69958 49.8168 6.69958 49.8444 6.66478 49.9068" fill="#E0E0E0"/>
<path d="M9.16583 50.3004C9.08162 49.9312 9.07889 49.5481 9.15785 49.1778C9.23681 48.8074 9.39556 48.4587 9.62303 48.156C9.65543 48.1128 9.69983 48.0672 9.75263 48.072C9.83543 48.0804 9.85583 48.192 9.85223 48.2712C9.81964 48.9988 9.58166 49.7024 9.16583 50.3004Z" fill="#E0E0E0"/>
<path d="M9.39258 50.4552C9.83147 50.5591 10.2877 50.5663 10.7297 50.4764C11.1716 50.3865 11.5888 50.2016 11.9522 49.9344C11.5238 49.7189 11.0338 49.6591 10.5662 49.7652C10.103 49.8708 9.68058 50.0784 9.39258 50.4552Z" fill="#E0E0E0"/>
<path d="M9.58301 49.9848C9.83692 49.5935 10.1797 49.2678 10.5835 49.0343C10.9872 48.8007 11.4404 48.6659 11.9062 48.6408C11.8436 48.8253 11.744 48.9949 11.6133 49.1394C11.4827 49.2839 11.3239 49.4001 11.1466 49.4808C10.7915 49.6408 10.4159 49.7507 10.0306 49.8072C9.88181 49.836 9.67901 49.8684 9.58301 49.9848Z" fill="#E0E0E0"/>
<path d="M9.2137 47.6988C9.35924 47.2566 9.45857 46.8006 9.51011 46.338C9.56132 45.8721 9.467 45.4017 9.24011 44.9916C9.01092 45.4131 8.88758 45.884 8.88068 46.3637C8.87378 46.8434 8.98354 47.3177 9.2005 47.7456" fill="#E0E0E0"/>
<path d="M10.7271 46.9332C11.2539 45.9732 12.3267 45.2148 13.4115 45.108C12.9927 46.1508 11.8515 46.956 10.7271 46.9332Z" fill="#E0E0E0"/>
<path d="M10.397 47.1204C11.1806 47.2404 11.849 47.7408 12.5822 48.0444C12.7352 48.1192 12.9055 48.1519 13.0754 48.1392C13.1602 48.132 13.241 48.0995 13.3072 48.0461C13.3735 47.9926 13.4223 47.9206 13.4474 47.8392C13.4587 47.7695 13.4528 47.698 13.4302 47.6311C13.4077 47.5642 13.369 47.5038 13.3178 47.4552C13.2138 47.3591 13.0913 47.2852 12.9578 47.238C12.1598 46.9056 11.3042 46.8972 10.463 47.0988" fill="#E0E0E0"/>
<path d="M9.94336 47.6712C10.1198 47.7216 10.1834 47.814 10.3214 47.934C10.8011 48.3411 11.3682 48.6322 11.9786 48.7848C12.0422 48.8004 12.125 48.8064 12.1562 48.75C12.1874 48.6936 12.149 48.6396 12.1142 48.594C11.8471 48.2824 11.5016 48.0479 11.1134 47.9148C10.7306 47.7732 10.3934 47.6016 9.94336 47.6376" fill="#E0E0E0"/>
<path d="M9.43085 44.3484C9.75185 44.6444 10.1311 44.8701 10.5444 45.011C10.9577 45.152 11.3959 45.205 11.8308 45.1668C11.8713 45.1676 11.9106 45.1535 11.9412 45.1272C12.0012 45.0624 11.9292 44.9604 11.8584 44.9052C11.1516 44.3544 10.2984 44.1252 9.42725 44.3484" fill="#E0E0E0"/>
<path d="M10.0381 44.1264C10.4638 43.8134 10.9575 43.6055 11.4788 43.5196C12.0002 43.4337 12.5345 43.4722 13.0381 43.632C12.6455 43.9955 12.1422 44.2165 11.6089 44.2596C11.0815 44.3079 10.5498 44.2628 10.0381 44.1264Z" fill="#E0E0E0"/>
<path d="M9.7968 42.6C9.7272 41.8944 9.7716 41.3376 9.7236 40.6284C9.7236 40.572 9.7068 40.5084 9.654 40.4832C9.5808 40.4556 9.5184 40.5456 9.4944 40.6212C9.39176 40.9497 9.36553 41.2974 9.41774 41.6377C9.46994 41.9779 9.59918 42.3017 9.7956 42.5844" fill="#E0E0E0"/>
<path d="M9.74512 42.678C10.2087 42.3815 10.6082 41.9951 10.9199 41.5416C11.1515 41.226 11.3459 40.848 11.2931 40.4616C11.131 40.4659 10.9718 40.5056 10.8267 40.578C10.6816 40.6503 10.5541 40.7535 10.4531 40.8804C10.2513 41.1355 10.1046 41.4297 10.0223 41.7444C9.92872 42.0552 9.86392 42.3744 9.75352 42.6792" fill="#E0E0E0"/>
<path d="M10.8936 42.36C11.9472 41.9714 12.9226 41.3972 13.7736 40.6644C13.4304 40.5264 13.0368 40.6092 12.6936 40.7472C11.9137 41.0426 11.2694 41.6139 10.8828 42.3528" fill="#E0E0E0"/>
<path d="M10.0679 43.0644C10.5974 43.14 11.1349 43.1424 11.6651 43.0716C12.1799 42.9651 12.6805 42.7988 13.1567 42.576C13.1987 42.564 13.2347 42.5366 13.2575 42.4992C13.2646 42.4768 13.265 42.4528 13.2586 42.4302C13.2522 42.4076 13.2393 42.3873 13.2215 42.372C13.1841 42.3428 13.1406 42.3223 13.0943 42.312C12.5594 42.183 11.9982 42.2169 11.4827 42.4092C10.9895 42.5775 10.5153 42.7971 10.0679 43.0644Z" fill="#E0E0E0"/>
<path d="M7.03685 44.3736C6.86599 44.0082 6.77524 43.6104 6.77069 43.207C6.76613 42.8037 6.84788 42.404 7.01045 42.0348C7.23125 42.3708 7.25765 42.798 7.21805 43.1976C7.17845 43.5972 7.05605 44.0076 7.04765 44.4096" fill="#E0E0E0"/>
<path d="M5.58953 43.6428C5.13586 43.637 4.68596 43.7259 4.26859 43.9038C3.85121 44.0817 3.47553 44.3447 3.16553 44.676C3.62265 44.7307 4.0856 44.6449 4.49273 44.43C4.89646 44.2147 5.27757 43.9594 5.63033 43.668" fill="#E0E0E0"/>
<path d="M4.61643 43.32C4.17363 43.284 3.74883 43.23 3.32283 43.3596C3.10783 43.4208 2.90848 43.5274 2.7383 43.6724C2.56811 43.8173 2.43106 43.9971 2.33643 44.1996C2.75405 44.2332 3.17304 44.154 3.54963 43.9704C3.92401 43.786 4.28104 43.5683 4.61643 43.32Z" fill="#E0E0E0"/>
<path d="M6.0576 43.3332C5.6592 43.0716 5.25 42.8064 4.7868 42.6984C4.3236 42.5904 3.786 42.6696 3.4668 43.0188C3.8424 43.2396 4.2972 43.266 4.7316 43.2648C5.166 43.2636 5.7 43.2648 6.1104 43.4052" fill="#E0E0E0"/>
<path d="M6.06016 43.3536C5.37856 42.6852 5.12056 41.4852 5.39536 40.572C5.93198 41.3944 6.16692 42.3774 6.06016 43.3536Z" fill="#E0E0E0"/>
<path d="M7.93066 41.46C8.05906 41.1624 8.14906 40.8492 8.26426 40.5456C8.37083 40.2383 8.53359 39.9534 8.74426 39.7056C8.95635 39.4557 9.25791 39.2989 9.58426 39.2688C9.47965 39.729 9.28015 40.1624 8.99851 40.5412C8.71688 40.9199 8.35931 41.2357 7.94866 41.4684" fill="#E0E0E0"/>
<path d="M7.59243 41.8548C7.38003 41.562 7.13403 41.166 6.84603 40.9476C6.70668 40.8319 6.54374 40.748 6.3686 40.7018C6.19346 40.6556 6.01034 40.6481 5.83203 40.68C6.01414 40.9989 6.26804 41.271 6.57361 41.4747C6.87918 41.6785 7.22801 41.8082 7.59243 41.8536" fill="#E0E0E0"/>
<path d="M7.65974 41.4852C7.50726 41.1366 7.39455 40.7719 7.32374 40.398C7.25394 40.0206 7.314 39.6306 7.49414 39.2916C7.86734 39.9984 7.98854 40.7556 7.67894 41.4924" fill="#E0E0E0"/>
<path d="M7.93457 39.2916C8.14577 38.592 8.78657 38.0772 9.47897 37.8408C9.56431 37.8054 9.65699 37.7914 9.74897 37.8C9.79475 37.8054 9.838 37.8239 9.87353 37.8533C9.90907 37.8827 9.9354 37.9217 9.94937 37.9656C9.97457 38.0856 9.87617 38.1924 9.78377 38.2716C9.24286 38.7334 8.61372 39.0804 7.93457 39.2916Z" fill="#E0E0E0"/>
<path d="M7.94169 38.7192C7.94823 38.2665 8.01604 37.8168 8.14329 37.3824C8.29089 36.9552 8.57289 36.5544 8.98329 36.3672C9.05409 36.8232 8.85249 37.2768 8.61009 37.668C8.36769 38.0592 8.07489 38.4312 7.92969 38.868" fill="#E0E0E0"/>
<path d="M7.93066 39.03C7.75546 38.52 7.73746 37.872 7.43146 37.428C7.21906 37.1172 6.87706 36.906 6.69226 36.576C6.58156 36.8919 6.59703 37.2384 6.73546 37.5432C6.8748 37.8439 7.06614 38.1178 7.30066 38.352C7.52626 38.592 7.72066 38.7744 7.93066 39.03Z" fill="#E0E0E0"/>
<path d="M7.93421 54.054C7.91981 54.054 7.90901 50.6508 7.90781 46.4532C7.90661 42.2556 7.91741 38.8524 7.93061 38.8524C7.94381 38.8524 7.95581 42.2544 7.95701 46.4532C7.95821 50.652 7.94741 54.054 7.93421 54.054Z" fill="#E0E0E0"/>
<path d="M10.908 43.86C10.8665 43.8791 10.8236 43.8951 10.7796 43.908L10.428 44.028C10.1304 44.1288 9.72364 44.2752 9.28084 44.4564C8.83804 44.6376 8.42884 44.7972 8.19364 45.0012C8.09981 45.0797 8.02512 45.1786 7.97524 45.2904C7.94164 45.3696 7.93564 45.4188 7.93084 45.4176C7.92604 45.4164 7.93084 45.4056 7.93084 45.3828C7.93578 45.3488 7.94423 45.3154 7.95605 45.2832C8.00088 45.1644 8.07423 45.0585 8.16964 44.9748C8.31116 44.8542 8.46966 44.7552 8.64004 44.6808C8.82844 44.5932 9.03725 44.5008 9.25925 44.4096C9.70325 44.2284 10.1148 44.0856 10.4148 43.9932C10.5648 43.9464 10.6872 43.9116 10.7748 43.8888C10.8182 43.8748 10.8628 43.8652 10.908 43.86Z" fill="#E0E0E0"/>
<path d="M11.8802 41.4648C11.87 41.4792 11.8579 41.4921 11.8442 41.5032L11.735 41.6064L11.3282 41.976L9.97336 43.1844C9.44416 43.656 8.98576 44.106 8.66896 44.4456C8.50936 44.6148 8.38456 44.7552 8.29936 44.8536L8.20096 44.9664C8.18883 44.9793 8.17512 44.9906 8.16016 45C8.16766 44.9839 8.17735 44.969 8.18896 44.9556C8.21056 44.9292 8.24056 44.8884 8.28136 44.8356C8.36176 44.7336 8.48296 44.5884 8.64136 44.4156C9.05155 43.9683 9.48495 43.543 9.93976 43.1412C10.4714 42.6708 10.955 42.2484 11.3066 41.9412C11.4782 41.7924 11.6198 41.6712 11.7242 41.5812L11.8442 41.4852C11.8555 41.4772 11.8675 41.4704 11.8802 41.4648Z" fill="#E0E0E0"/>
<path d="M9.40098 43.6644C9.38778 43.6572 9.49818 43.4016 9.60858 43.0788C9.71898 42.756 9.77178 42.4788 9.78618 42.486C9.7752 42.6944 9.73105 42.8998 9.65538 43.0944C9.6084 43.2338 9.55351 43.3704 9.49098 43.5036C9.46844 43.561 9.43816 43.6151 9.40098 43.6644Z" fill="#E0E0E0"/>
<path d="M7.93693 45.72C7.9065 45.6913 7.87916 45.6595 7.85533 45.6252L7.64653 45.36C7.47133 45.132 7.22773 44.8188 6.95653 44.4768C6.68533 44.1348 6.43333 43.8252 6.25213 43.6032L6.03853 43.338C6.0103 43.3073 5.98573 43.2735 5.96533 43.2372C5.99735 43.2639 6.02669 43.2936 6.05293 43.326C6.10813 43.3848 6.18493 43.4724 6.27853 43.5804C6.46693 43.7976 6.72133 44.1024 6.99853 44.4456C7.27573 44.7888 7.50973 45.1056 7.67773 45.3384C7.76293 45.4584 7.82893 45.5496 7.87453 45.6168C7.89944 45.6485 7.92039 45.6832 7.93693 45.72Z" fill="#E0E0E0"/>
<path d="M7.28529 44.886C7.15285 44.7411 7.0588 44.5653 7.01169 44.3748C6.96052 44.2083 6.93979 44.0339 6.95049 43.86H6.97209C6.96249 43.8996 6.95529 43.92 6.95049 43.92C6.94569 43.92 6.95049 43.8972 6.95049 43.8564H6.97209C6.98247 44.0263 7.01185 44.1946 7.05969 44.358C7.12106 44.5396 7.19649 44.7161 7.28529 44.886Z" fill="#E0E0E0"/>
<path d="M6.44261 43.8276C6.38384 43.783 6.31975 43.7459 6.25181 43.7172C6.08031 43.6663 5.90001 43.652 5.72261 43.6752C5.54295 43.6887 5.36474 43.7172 5.18982 43.7604C5.11802 43.7834 5.04462 43.801 4.97021 43.8132C5.03555 43.7742 5.10633 43.7451 5.18021 43.7268C5.35543 43.673 5.53619 43.6392 5.71902 43.626C5.90309 43.6008 6.09053 43.621 6.26502 43.6848C6.33935 43.7097 6.40233 43.7604 6.44261 43.8276Z" fill="#E0E0E0"/>
<path d="M6.24023 43.5708C6.24023 43.578 6.12983 43.5264 5.94863 43.464C5.71329 43.387 5.46953 43.3387 5.22263 43.32C4.97399 43.3023 4.72412 43.3152 4.47863 43.3584C4.29023 43.392 4.17623 43.4268 4.17383 43.4196C4.19762 43.4038 4.22404 43.3925 4.25183 43.386C4.324 43.3604 4.39775 43.3396 4.47263 43.3236C4.96995 43.216 5.48786 43.2556 5.96303 43.4376C6.03459 43.4647 6.10433 43.4963 6.17183 43.5324C6.19603 43.5425 6.21898 43.5554 6.24023 43.5708Z" fill="#E0E0E0"/>
<path d="M7.93096 42.486C7.84393 42.2441 7.77258 41.9968 7.71736 41.7456C7.64637 41.4986 7.59106 41.2473 7.55176 40.9932C7.63899 41.2351 7.71034 41.4824 7.76536 41.7336C7.83648 41.9807 7.89179 42.232 7.93096 42.486Z" fill="#E0E0E0"/>
<path d="M7.94422 42.486C7.87515 42.3324 7.79493 42.184 7.70422 42.042C7.60397 41.9081 7.48748 41.7872 7.35742 41.682C7.40657 41.6947 7.45214 41.7185 7.49062 41.7516C7.58965 41.8237 7.67567 41.9122 7.74502 42.0132C7.85206 42.1504 7.9208 42.3136 7.94422 42.486Z" fill="#E0E0E0"/>
<path d="M7.93458 52.2396C7.92858 52.2396 7.91898 52.158 7.88058 52.0128C7.82395 51.8095 7.74759 51.6121 7.65258 51.4236C7.32538 50.8077 6.92003 50.2366 6.44658 49.7244C6.17778 49.416 5.91618 49.1244 5.69418 48.8484C5.49722 48.6032 5.31873 48.3437 5.16018 48.072C5.05354 47.8881 4.96281 47.6954 4.88898 47.496C4.86378 47.4252 4.84578 47.3688 4.83618 47.3316C4.82973 47.3125 4.82492 47.2928 4.82178 47.2728C4.82178 47.2728 4.85058 47.3496 4.90698 47.4888C4.98736 47.6839 5.08201 47.8728 5.19018 48.054C5.35282 48.3219 5.53448 48.5778 5.73378 48.8196C5.95698 49.0944 6.21378 49.3836 6.48858 49.692C6.96469 50.2073 7.3684 50.785 7.68858 51.4092C7.78143 51.6008 7.85305 51.802 7.90218 52.0092C7.91898 52.0836 7.92858 52.1412 7.93338 52.1808C7.93559 52.2003 7.93599 52.22 7.93458 52.2396Z" fill="#E0E0E0"/>
<path d="M10.6215 49.2C10.5765 49.2296 10.5296 49.2561 10.4811 49.2792C10.3558 49.3511 10.2356 49.4313 10.1211 49.5192C9.95001 49.6526 9.78953 49.7991 9.64105 49.9572C9.47185 50.1348 9.29905 50.3412 9.12145 50.5572C8.76145 51.0012 8.43625 51.3972 8.23825 51.708C8.13745 51.864 8.06425 51.9948 8.01625 52.0872C7.99353 52.1359 7.96789 52.1832 7.93945 52.2288C7.93945 52.2288 7.93945 52.2144 7.95265 52.188C7.96585 52.1616 7.97665 52.1256 7.99945 52.0788C8.0611 51.9445 8.13124 51.8142 8.20945 51.6888C8.47848 51.285 8.77015 50.8968 9.08305 50.526C9.26065 50.304 9.43585 50.0976 9.60745 49.92C9.75917 49.7619 9.92374 49.6166 10.0995 49.4856C10.2181 49.398 10.3442 49.3209 10.4763 49.2552C10.5231 49.2324 10.5615 49.218 10.5867 49.2072C10.598 49.2036 10.6096 49.2012 10.6215 49.2Z" fill="#E0E0E0"/>
<path d="M10.6799 50.1888C10.5818 50.21 10.4823 50.2245 10.3823 50.232C10.1433 50.2565 9.90706 50.3031 9.67667 50.3712C9.4486 50.4449 9.23475 50.5569 9.04427 50.7024C8.89787 50.8152 8.82947 50.9088 8.82227 50.9028C8.83306 50.8776 8.84807 50.8545 8.86667 50.8344C8.91303 50.7767 8.96487 50.7237 9.02147 50.676C9.21022 50.519 9.42735 50.3996 9.66107 50.3244C9.8955 50.255 10.137 50.2123 10.3811 50.1972C10.4802 50.1856 10.5802 50.1828 10.6799 50.1888Z" fill="#E0E0E0"/>
<path d="M8.90407 50.7948C8.88847 50.7864 9.02407 50.5812 9.12607 50.3052C9.22807 50.0292 9.24607 49.7832 9.26407 49.7868C9.27439 49.8395 9.27439 49.8937 9.26407 49.9464C9.24992 50.0745 9.22092 50.2006 9.17767 50.322C9.13133 50.4433 9.07177 50.5592 9.00007 50.6676C8.97523 50.7149 8.9428 50.7579 8.90407 50.7948Z" fill="#E0E0E0"/>
<path d="M11.4914 46.56C11.4914 46.56 11.4758 46.5708 11.4446 46.5852L11.3042 46.6488C11.243 46.6752 11.1686 46.7088 11.0846 46.7532C11.0006 46.7976 10.9022 46.8408 10.8002 46.902L10.6382 46.9944C10.5818 47.0268 10.5266 47.0652 10.4666 47.1024C10.3466 47.1756 10.2266 47.2644 10.0994 47.3556C9.82726 47.5617 9.57058 47.7876 9.33141 48.0312C9.09604 48.2783 8.87944 48.5426 8.68341 48.822C8.59581 48.9528 8.51061 49.0752 8.44341 49.1976C8.40861 49.2576 8.37261 49.3176 8.34141 49.3728L8.25501 49.5384C8.19741 49.6416 8.15541 49.7412 8.11581 49.8276C8.07621 49.914 8.04261 49.9884 8.01861 50.0496L7.95981 50.1924C7.9544 50.2093 7.94673 50.2255 7.93701 50.2404C7.93701 50.2404 7.93701 50.2224 7.95141 50.1888C7.96581 50.1552 7.98021 50.1024 8.00061 50.0436C8.02101 49.9848 8.05101 49.9032 8.08941 49.8168C8.12781 49.7304 8.16741 49.6284 8.22381 49.5228L8.30781 49.3548C8.33781 49.296 8.37381 49.2348 8.40861 49.1772C8.47581 49.0572 8.56101 48.9288 8.64861 48.7956C8.8436 48.514 9.06025 48.2479 9.29661 48C9.53729 47.7549 9.79645 47.5286 10.0718 47.3232C10.2014 47.232 10.3238 47.1432 10.445 47.0724C10.505 47.0352 10.565 46.998 10.619 46.9656L10.7834 46.8756C10.8878 46.8156 10.9874 46.7736 11.0726 46.7316C11.1456 46.6956 11.2205 46.6636 11.297 46.6356L11.441 46.5804L11.4914 46.56Z" fill="#E0E0E0"/>
<path d="M9.35986 47.9856C9.37987 47.9161 9.422 47.855 9.47986 47.8116C9.6109 47.6977 9.77786 47.6336 9.95146 47.6304C10.1214 47.6301 10.2898 47.6631 10.4471 47.7276C10.5141 47.7484 10.5776 47.7792 10.6355 47.8188C10.5687 47.8047 10.5033 47.785 10.4399 47.76C10.2853 47.7074 10.1232 47.6802 9.95986 47.6796C9.79687 47.6834 9.63929 47.7389 9.50986 47.838C9.45626 47.8834 9.40612 47.9328 9.35986 47.9856Z" fill="#E0E0E0"/>
<path d="M9.04688 48.3132C9.11023 48.1752 9.15541 48.0296 9.18128 47.88C9.19033 47.7281 9.18025 47.5757 9.15128 47.4264C9.17915 47.4636 9.19804 47.5067 9.20648 47.5524C9.23496 47.6612 9.2427 47.7743 9.22928 47.886C9.21665 47.9977 9.18284 48.1061 9.12968 48.2052C9.08888 48.2784 9.05167 48.3168 9.04688 48.3132Z" fill="#E0E0E0"/>
<path d="M5.5835 52.7268C5.6567 54.0276 6.0491 55.35 6.6515 56.6868H9.2735C9.8483 55.3668 10.2131 54.0468 10.2779 52.7268H5.5835Z" fill="#E0E0E0"/>
<path d="M9.8532 54.8316C9.8532 54.8448 8.9892 54.8556 7.9248 54.8556C6.8604 54.8556 6 54.84 6 54.8316C6 54.8232 6.8628 54.8064 7.9272 54.8064C8.9916 54.8064 9.8532 54.8184 9.8532 54.8316Z" fill="#FAFAFA"/>
<path d="M9.79458 55.302C9.79458 55.3164 8.98578 55.3272 7.98738 55.3272C6.98898 55.3272 6.18018 55.32 6.18018 55.302C6.18018 55.284 6.98898 55.278 7.98738 55.278C8.98578 55.278 9.79458 55.2888 9.79458 55.302Z" fill="#FAFAFA"/>
<path d="M6.69343 53.5812C6.72703 53.9829 6.72703 54.3867 6.69343 54.7884C6.66143 54.3866 6.66143 53.9829 6.69343 53.5812Z" fill="#FAFAFA"/>
<path d="M8.09893 53.5812C8.13091 53.9974 8.13091 54.4154 8.09893 54.8316C8.06533 54.4155 8.06533 53.9973 8.09893 53.5812Z" fill="#FAFAFA"/>
<path d="M9.41658 53.5704C9.45018 53.995 9.45018 54.4215 9.41658 54.846C9.38458 54.4214 9.38458 53.995 9.41658 53.5704Z" fill="#FAFAFA"/>
<path d="M10.1998 53.5812C10.1998 53.5944 9.18822 53.6052 7.93902 53.6052C6.68982 53.6052 5.67822 53.5944 5.67822 53.5812C5.67822 53.568 6.69102 53.556 7.93902 53.556C9.18702 53.556 10.1998 53.5668 10.1998 53.5812Z" fill="#FAFAFA"/>
<path d="M53.8883 46.602C53.8823 46.602 53.8763 46.5108 53.8439 46.35C53.8018 46.1224 53.7346 45.9003 53.6434 45.6876C53.5117 45.3716 53.3169 45.0858 53.0711 44.8476C52.7727 44.5514 52.3697 44.3847 51.9493 44.3833C51.5289 44.382 51.1249 44.5462 50.8247 44.8404C50.5771 45.0779 50.381 45.3639 50.2486 45.6804C50.156 45.8924 50.0876 46.1142 50.0447 46.3416C50.0123 46.5024 50.0063 46.5936 49.9991 46.5924C49.9964 46.5705 49.9964 46.5483 49.9991 46.5264C49.9991 46.4832 50.0074 46.4196 50.0194 46.338C50.0541 46.1064 50.117 45.8799 50.2067 45.6636C50.3368 45.3389 50.5334 45.045 50.7839 44.8008C50.937 44.6486 51.1186 44.5281 51.3183 44.4462C51.518 44.3642 51.7319 44.3225 51.9478 44.3233C52.1637 44.324 52.3773 44.3674 52.5764 44.4507C52.7755 44.5341 52.9562 44.6559 53.1083 44.8092C53.3581 45.0536 53.5536 45.348 53.6819 45.6732C53.7714 45.8898 53.8335 46.1168 53.8667 46.3488C53.8768 46.4112 53.8836 46.4741 53.887 46.5372C53.8903 46.5586 53.8907 46.5804 53.8883 46.602Z" fill="#E0E0E0"/>
<path d="M54.5602 46.602C54.5542 46.602 54.547 46.5108 54.5158 46.35C54.4738 46.1224 54.4066 45.9003 54.3154 45.6876C54.1831 45.3716 53.9879 45.0859 53.7418 44.8476C53.4435 44.5514 53.0405 44.3847 52.6201 44.3833C52.1997 44.382 51.7957 44.5462 51.4954 44.8404C51.2483 45.0783 51.0523 45.3641 50.9194 45.6804C50.8276 45.8926 50.7596 46.1144 50.7166 46.3416C50.6842 46.5024 50.677 46.5936 50.671 46.5924C50.6676 46.5705 50.6676 46.5483 50.671 46.5264C50.6745 46.4633 50.6813 46.4004 50.6914 46.338C50.7255 46.1063 50.7884 45.8797 50.8786 45.6636C51.0088 45.3389 51.2054 45.045 51.4558 44.8008C51.609 44.6486 51.7906 44.5281 51.9903 44.4462C52.19 44.3642 52.4039 44.3225 52.6198 44.3233C52.8356 44.324 53.0492 44.3674 53.2484 44.4507C53.4475 44.5341 53.6282 44.6559 53.7802 44.8092C54.0297 45.0539 54.2251 45.3483 54.3538 45.6732C54.4423 45.8902 54.5043 46.117 54.5386 46.3488C54.5485 46.4112 54.5549 46.4741 54.5578 46.5372C54.5618 46.5586 54.5626 46.5804 54.5602 46.602Z" fill="#E0E0E0"/>
<path d="M48.0782 46.362L55.6622 46.3044L55.8278 56.6424H47.3174L48.0782 46.362Z" fill="#EBEBEB"/>
<path d="M55.6621 46.3044H56.6149L57.4345 56.6424H55.8277L55.6621 46.3044Z" fill="#E0E0E0"/>
<path d="M54.0554 50.3748H49.0898V51.2064H54.0554V50.3748Z" fill="white"/>
<path d="M11.7457 6.98401H3.09131V21.3096H11.7457V6.98401Z" fill="#E0E0E0"/>
<path d="M11.4576 6.98401H2.80322V21.3096H11.4576V6.98401Z" fill="#EBEBEB"/>
<path d="M11.089 7.27441H3.17139V21.0192H11.089V7.27441Z" fill="white"/>
<path d="M9.54711 9.06H4.67871V19.2324H9.54711V9.06Z" fill="#EBEBEB"/>
<path d="M4.67979 15.6336C4.66899 14.6832 5.51979 13.7556 6.46419 13.6224C6.91299 13.56 7.38939 13.6488 7.80939 13.4772C8.55699 13.17 8.79579 12.1752 9.54819 11.88L9.58299 19.2336H4.67979V15.6336Z" fill="#E0E0E0"/>
<path d="M56.6434 15.6516H49.4458V23.1552H56.6434V15.6516Z" fill="#E0E0E0"/>
<path d="M56.1566 15.6516H48.959V23.1552H56.1566V15.6516Z" fill="#F5F5F5"/>
<path d="M56.16 23.16H48.96V15.6492H56.16V23.16ZM48.96 23.16H56.16V15.654H48.96V23.16Z" fill="#E0E0E0"/>
<path d="M55.189 16.6608H49.9258V22.1472H55.189V16.6608Z" fill="white"/>
<path d="M49.9258 22.1832C49.8889 22.2387 49.8454 22.2895 49.7962 22.3344C49.7122 22.4232 49.5946 22.5432 49.4614 22.6728C49.3282 22.8024 49.2082 22.92 49.1182 23.0016C49.0727 23.05 49.0216 23.0927 48.9658 23.1288C49.0029 23.0739 49.0465 23.0235 49.0954 22.9788C49.1794 22.89 49.297 22.77 49.4302 22.6392C49.5634 22.5084 49.6846 22.392 49.7746 22.3092C49.8199 22.2615 49.8707 22.2192 49.9258 22.1832Z" fill="#E0E0E0"/>
<path d="M55.1895 22.17C55.2449 22.2069 55.2957 22.2504 55.3407 22.2996C55.4295 22.3836 55.5495 22.5012 55.6791 22.6344C55.8087 22.7676 55.9263 22.8876 56.0091 22.9776C56.0569 23.0232 56.0992 23.0744 56.1351 23.13C56.0801 23.0929 56.0298 23.0494 55.9851 23.0004C55.8963 22.9164 55.7763 22.7976 55.6455 22.6656C55.5147 22.5336 55.3983 22.41 55.3155 22.3212C55.2677 22.2759 55.2254 22.2251 55.1895 22.17Z" fill="#E0E0E0"/>
<path d="M55.1748 16.68C55.2122 16.6249 55.2557 16.5742 55.3044 16.5288C55.3884 16.44 55.5072 16.32 55.6392 16.1892C55.7712 16.0584 55.8936 15.9432 55.9824 15.8604C56.028 15.8142 56.0792 15.7739 56.1348 15.7404C56.098 15.7952 56.0549 15.8456 56.0064 15.8904C55.9224 15.9792 55.8036 16.0992 55.6704 16.23C55.5372 16.3608 55.416 16.4772 55.326 16.56C55.2803 16.6057 55.2296 16.6459 55.1748 16.68Z" fill="#E0E0E0"/>
<path d="M49.9114 16.6884C49.856 16.6515 49.8052 16.608 49.7602 16.5588C49.6726 16.4748 49.5526 16.356 49.4218 16.224C49.291 16.092 49.1746 15.9696 49.093 15.8808C49.0446 15.8353 49.0019 15.7841 48.9658 15.7284C49.0209 15.7648 49.0713 15.808 49.1158 15.8568C49.2046 15.9408 49.3258 16.0596 49.4554 16.1928C49.585 16.326 49.7038 16.4472 49.7854 16.5372C49.8332 16.5825 49.8754 16.6333 49.9114 16.6884Z" fill="#E0E0E0"/>
<path d="M55.175 22.146C55.1744 22.1372 55.1744 22.1284 55.175 22.1196C55.175 22.1016 55.175 22.0764 55.175 22.0428C55.175 21.9744 55.175 21.876 55.175 21.7476C55.175 21.4872 55.175 21.1092 55.175 20.6292C55.175 19.6692 55.175 18.2988 55.1642 16.6608L55.1846 16.6812H49.937L49.961 16.6584C49.961 18.672 49.961 20.5548 49.961 22.1436L49.9406 22.1244L53.741 22.134L54.809 22.14H55.0802H54.8006H53.7386L49.925 22.1496H49.9058V22.1292C49.9058 20.5404 49.9058 18.6576 49.9058 16.644V16.62H49.9298H55.1774H55.2002V16.6404C55.2002 18.2844 55.1918 19.6572 55.1894 20.622C55.1894 21.102 55.1894 21.4764 55.1894 21.7356C55.1894 21.8556 55.1894 21.96 55.1894 22.0272C55.1894 22.0596 55.1894 22.0836 55.1894 22.1016C55.1869 22.1171 55.1821 22.1321 55.175 22.146Z" fill="#E0E0E0"/>
<path d="M53.4348 18.5256H51.6792V20.2812H53.4348V18.5256Z" fill="#EBEBEB"/>
<path d="M54.6829 56.64C54.6829 56.6568 43.6309 56.6712 30.0001 56.6712C16.3693 56.6712 5.31494 56.6592 5.31494 56.64C5.31494 56.6208 16.3645 56.6088 30.0001 56.6088C43.6357 56.6088 54.6829 56.6256 54.6829 56.64Z" fill="#263238"/>
<path d="M52.7579 25.8504H47.2403C46.3132 25.8504 45.5615 26.602 45.5615 27.5292V33.0468C45.5615 33.974 46.3132 34.7256 47.2403 34.7256H52.7579C53.6851 34.7256 54.4367 33.974 54.4367 33.0468V27.5292C54.4367 26.602 53.6851 25.8504 52.7579 25.8504Z" fill="#FF725E"/>
<path d="M51.2029 31.44H50.6677C50.6518 31.44 50.6366 31.4337 50.6253 31.4224C50.614 31.4112 50.6077 31.3959 50.6077 31.38C50.6077 31.3641 50.614 31.3489 50.6253 31.3376C50.6366 31.3263 50.6518 31.32 50.6677 31.32H51.1417L51.0721 29.2644C51.0715 29.2507 51.0757 29.2371 51.0841 29.2262C51.0924 29.2152 51.1043 29.2075 51.1177 29.2044C51.1311 29.2011 51.1452 29.2026 51.1576 29.2088C51.1699 29.2149 51.1796 29.2253 51.1849 29.238L51.4177 29.766L52.1533 29.3976C51.8821 28.8492 51.5761 28.2588 51.5245 28.206C51.4659 28.1568 51.4004 28.1164 51.3301 28.086C51.2884 28.0652 51.2455 28.0468 51.2017 28.0308C51.0025 27.9576 50.7217 27.8832 50.6077 27.8544C50.5502 27.963 50.4636 28.0535 50.3577 28.1158C50.2518 28.1781 50.1306 28.2097 50.0077 28.2072C49.6045 28.1868 49.4473 27.96 49.3957 27.8544C49.2841 27.8832 49.0033 27.9564 48.8113 28.0272C48.7657 28.0429 48.7212 28.0618 48.6781 28.0836C48.607 28.1138 48.5407 28.1542 48.4813 28.2036C48.4285 28.2564 48.1213 28.8468 47.8513 29.3952L48.5881 29.7636L48.8197 29.2356C48.8254 29.2232 48.8352 29.2131 48.8474 29.207C48.8596 29.2009 48.8736 29.1991 48.8869 29.202C48.9004 29.2053 48.9123 29.213 48.9208 29.2239C48.9293 29.2348 48.9338 29.2482 48.9337 29.262L48.8701 31.32H49.9501C49.966 31.32 49.9813 31.3263 49.9926 31.3376C50.0038 31.3489 50.0101 31.3641 50.0101 31.38C50.0101 31.3959 50.0038 31.4112 49.9926 31.4224C49.9813 31.4337 49.966 31.44 49.9501 31.44H48.8089C48.7927 31.44 48.7772 31.4335 48.7657 31.422C48.755 31.4102 48.749 31.3948 48.7489 31.3788L48.7993 29.5656L48.6649 29.8716C48.6616 29.8791 48.6568 29.8858 48.6508 29.8913C48.6448 29.8969 48.6378 29.9012 48.6301 29.904C48.6228 29.9073 48.6148 29.909 48.6067 29.909C48.5987 29.909 48.5907 29.9073 48.5833 29.904L47.7433 29.4816C47.7294 29.4742 47.7189 29.4617 47.714 29.4467C47.7091 29.4317 47.7101 29.4154 47.7169 29.4012C47.8141 29.2044 48.3037 28.2168 48.3949 28.1256C48.4628 28.0673 48.5393 28.02 48.6217 27.9852C48.6665 27.9624 48.7126 27.9424 48.7597 27.9252C49.0189 27.8292 49.4005 27.7368 49.4161 27.7332C49.4235 27.7312 49.4311 27.7307 49.4386 27.7317C49.4462 27.7326 49.4534 27.7351 49.46 27.7389C49.4666 27.7427 49.4724 27.7477 49.477 27.7538C49.4816 27.7598 49.485 27.7667 49.4869 27.774C49.4869 27.786 49.5841 28.0728 50.0065 28.0944C50.4265 28.0728 50.5189 27.7764 50.5189 27.774C50.5209 27.7667 50.5243 27.7598 50.5289 27.7538C50.5335 27.7477 50.5393 27.7427 50.5458 27.7389C50.5524 27.7351 50.5597 27.7326 50.5672 27.7317C50.5747 27.7307 50.5824 27.7312 50.5897 27.7332C50.6065 27.7332 50.9869 27.8292 51.2365 27.9216H51.2437C51.2929 27.9396 51.341 27.9605 51.3877 27.984C51.4692 28.0186 51.5449 28.0656 51.6121 28.1232C51.7033 28.2144 52.1929 29.2032 52.2901 29.3988C52.2936 29.4059 52.2957 29.4136 52.2962 29.4215C52.2966 29.4294 52.2956 29.4373 52.293 29.4448C52.2905 29.4522 52.2864 29.4591 52.2812 29.465C52.276 29.4709 52.2696 29.4758 52.2625 29.4792L51.4225 29.9016C51.4152 29.9049 51.4072 29.9066 51.3991 29.9066C51.3911 29.9066 51.3831 29.9049 51.3757 29.9016C51.3682 29.8988 51.3614 29.8945 51.3556 29.8889C51.3498 29.8833 51.3452 29.8766 51.3421 29.8692L51.2089 29.5668L51.2701 31.3764C51.2706 31.3844 51.2694 31.3924 51.2665 31.3999C51.2636 31.4073 51.2591 31.4141 51.2533 31.4196C51.2471 31.4267 51.2393 31.4322 51.2305 31.4357C51.2218 31.4393 51.2123 31.4407 51.2029 31.44Z" fill="white"/>
<path d="M50.3605 31.44H50.1913C50.1754 31.44 50.1602 31.4337 50.1489 31.4224C50.1377 31.4112 50.1313 31.3959 50.1313 31.38C50.1313 31.3641 50.1377 31.3488 50.1489 31.3376C50.1602 31.3263 50.1754 31.32 50.1913 31.32H50.3605C50.3765 31.32 50.3917 31.3263 50.403 31.3376C50.4142 31.3488 50.4205 31.3641 50.4205 31.38C50.4205 31.3959 50.4142 31.4112 50.403 31.4224C50.3917 31.4337 50.3765 31.44 50.3605 31.44Z" fill="white"/>
<path d="M47.5201 32.2356H47.2129V32.0544H48.0529V32.2356H47.7457V33.0156H47.5201V32.2356Z" fill="white"/>
<path d="M48.0767 32.5428H48.4643V32.7144H48.0767V32.5428Z" fill="white"/>
<path d="M48.5542 32.9208L48.6298 32.7528C48.7229 32.8174 48.8333 32.8525 48.9466 32.8536C49.0786 32.8536 49.1314 32.8092 49.1314 32.7504C49.1314 32.5704 48.5734 32.694 48.5734 32.3364C48.5734 32.1732 48.7042 32.0376 48.9778 32.0376C49.0947 32.0351 49.21 32.0646 49.3114 32.1228L49.243 32.292C49.1624 32.2438 49.0705 32.2177 48.9766 32.2164C48.8446 32.2164 48.7942 32.2656 48.7942 32.3256C48.7942 32.5032 49.3534 32.3808 49.3534 32.7336C49.3534 32.8944 49.2202 33.0312 48.9454 33.0312C48.8068 33.0349 48.6704 32.9964 48.5542 32.9208Z" fill="white"/>
<path d="M50.3866 32.0544V33.0144H50.1598V32.6196H49.723V33.0144H49.501V32.0544H49.723V32.4324H50.1598V32.0544H50.3866Z" fill="white"/>
<path d="M50.6133 32.0544H50.8353V33.0144H50.6133V32.0544Z" fill="white"/>
<path d="M51.6755 33.0156L51.4907 32.7468H51.2867V33.0156H51.0635V32.0556H51.4799C51.7367 32.0556 51.8975 32.1888 51.8975 32.4036C51.9 32.4685 51.8823 32.5326 51.8469 32.587C51.8114 32.6413 51.7599 32.6834 51.6995 32.7072L51.9155 33.0168L51.6755 33.0156ZM51.4679 32.2356H51.2867V32.5704H51.4679C51.6035 32.5704 51.6719 32.5068 51.6719 32.4024C51.6719 32.298 51.5999 32.2356 51.4679 32.2356Z" fill="white"/>
<path d="M52.2574 32.2356H51.9502V32.0544H52.7902V32.2356H52.483V33.0156H52.2598L52.2574 32.2356Z" fill="white"/>
<path d="M50.1095 50.16C50.0699 49.898 49.9998 49.6414 49.9007 49.3956C49.7901 49.1318 49.6268 48.8933 49.4207 48.6948C49.1721 48.4472 48.8359 48.3076 48.485 48.3062C48.1341 48.3049 47.7968 48.4419 47.5463 48.6876C47.3401 48.8855 47.1768 49.1236 47.0663 49.3872C46.9659 49.6324 46.8946 49.8886 46.8539 50.1504C46.8508 50.1322 46.8508 50.1135 46.8539 50.0952C46.8563 50.0421 46.8619 49.9892 46.8707 49.9368C46.8984 49.7423 46.9504 49.552 47.0255 49.3704C47.1338 49.0997 47.2973 48.8545 47.5055 48.6504C47.6341 48.5224 47.7867 48.4209 47.9545 48.3519C48.1223 48.2829 48.3021 48.2477 48.4836 48.2482C48.665 48.2488 48.8446 48.2851 49.012 48.3552C49.1794 48.4252 49.3313 48.5276 49.4591 48.6564C49.6675 48.8627 49.8309 49.1099 49.9391 49.3824C50.0131 49.5642 50.0643 49.7545 50.0915 49.9488C50.1 50.0013 50.1052 50.0542 50.1071 50.1072C50.1107 50.1246 50.1115 50.1424 50.1095 50.16Z" fill="#263238"/>
<path d="M50.6723 50.16C50.6326 49.898 50.5626 49.6414 50.4635 49.3956C50.3529 49.1318 50.1896 48.8933 49.9835 48.6948C49.7349 48.4472 49.3987 48.3076 49.0478 48.3062C48.6969 48.3049 48.3596 48.4419 48.1091 48.6876C47.9034 48.8859 47.7401 49.1239 47.6291 49.3872C47.5294 49.6326 47.4585 49.8887 47.4179 50.1504C47.4147 50.1322 47.4147 50.1135 47.4179 50.0952C47.4204 50.0422 47.4256 49.9893 47.4335 49.9368C47.4623 49.7424 47.5146 49.5522 47.5895 49.3704C47.6977 49.0997 47.8612 48.8545 48.0695 48.6504C48.1981 48.5224 48.3506 48.4209 48.5185 48.3519C48.6863 48.2829 48.8661 48.2477 49.0475 48.2482C49.229 48.2488 49.4086 48.2851 49.576 48.3552C49.7434 48.4252 49.8953 48.5276 50.0231 48.6564C50.232 48.8623 50.3955 49.1096 50.5031 49.3824C50.5774 49.5642 50.629 49.7544 50.6567 49.9488C50.6651 50.0013 50.6704 50.0542 50.6723 50.1072C50.6751 50.1247 50.6751 50.1425 50.6723 50.16Z" fill="#263238"/>
<path d="M44.9604 49.8228L51.3144 49.7844L51.4524 56.6808H44.3232L44.9604 49.8228Z" fill="#455A64"/>
<path d="M51.3145 49.7844H52.1113L52.7989 56.6808H51.4525L51.3145 49.7844Z" fill="#263238"/>
<path d="M50.231 52.1268H46.0718V52.824H50.231V52.1268Z" fill="white"/>
<path d="M45.3133 53.9424H15.5341C15.3392 53.9391 15.1468 53.8975 14.968 53.8198C14.7891 53.7422 14.6273 53.6301 14.4918 53.4899C14.3563 53.3497 14.2498 53.1842 14.1782 53.0028C14.1067 52.8215 14.0716 52.6278 14.0749 52.4328V6.91202C14.0714 6.71692 14.1064 6.52305 14.1779 6.34146C14.2493 6.15988 14.3558 5.99415 14.4913 5.85375C14.6268 5.71334 14.7887 5.601 14.9676 5.52315C15.1465 5.4453 15.339 5.40346 15.5341 5.40002H45.3145C45.5096 5.40346 45.7022 5.4453 45.8811 5.52315C46.06 5.601 46.2219 5.71334 46.3574 5.85375C46.4929 5.99415 46.5994 6.15988 46.6708 6.34146C46.7423 6.52305 46.7772 6.71692 46.7737 6.91202V52.4328C46.7802 52.8266 46.6299 53.2069 46.3561 53.49C46.0822 53.7731 45.7072 53.9358 45.3133 53.9424Z" fill="#E0E0E0"/>
<path d="M45.3135 53.9424L45.4179 53.9352C45.4606 53.9332 45.5032 53.928 45.5451 53.9196C45.6044 53.9105 45.6629 53.8973 45.7203 53.88C45.8822 53.83 46.0341 53.752 46.1691 53.6496C46.3564 53.5082 46.5073 53.3244 46.6095 53.1132C46.6711 52.987 46.7151 52.8529 46.7403 52.7148C46.7636 52.5604 46.772 52.404 46.7655 52.248C46.7655 51.9192 46.7655 51.5592 46.7655 51.168C46.7655 50.3892 46.7655 49.488 46.7655 48.4788C46.7655 44.4324 46.7595 38.5764 46.7547 31.3416C46.7547 27.7236 46.7547 23.7612 46.7547 19.5072C46.7547 17.3808 46.7547 15.1836 46.7547 12.9156C46.7547 11.782 46.7547 10.6324 46.7547 9.4668V7.7088C46.7547 7.4148 46.7547 7.116 46.7547 6.822C46.7482 6.67598 46.7191 6.53186 46.6683 6.3948C46.5936 6.1869 46.473 5.99849 46.3155 5.84352C46.1581 5.68856 45.9678 5.57101 45.7587 5.4996C45.6175 5.45597 45.4708 5.43293 45.3231 5.4312H15.5379C15.1973 5.43242 14.8687 5.55688 14.6127 5.7816C14.3593 6.0068 14.19 6.31148 14.1327 6.6456C14.1096 6.81374 14.1015 6.98362 14.1087 7.1532V20.6952C14.1087 25.9008 14.1087 30.9228 14.1087 35.7072C14.1087 40.4916 14.1087 45.036 14.1087 49.29C14.1087 50.3548 14.1087 51.4 14.1087 52.4256C14.1101 52.6764 14.1714 52.9233 14.2875 53.1456C14.4642 53.4782 14.7626 53.7298 15.1203 53.8476C15.2372 53.8836 15.3581 53.9046 15.4803 53.91C15.7275 53.9172 15.9771 53.91 16.2231 53.91H21.9015L39.0375 53.9196L43.6971 53.9256L39.0375 53.9316L21.9015 53.9412H16.2231C15.9759 53.9412 15.7299 53.9412 15.4779 53.9412C15.3509 53.9362 15.225 53.9149 15.1035 53.8776C14.7336 53.7554 14.425 53.4954 14.2419 53.1516C14.1209 52.921 14.0575 52.6645 14.0571 52.404C14.0571 51.3776 14.0571 50.3324 14.0571 49.2684C14.0571 45.0144 14.0571 40.4688 14.0571 35.6856C14.0571 30.9024 14.0571 25.8792 14.0571 20.6736V7.1556C14.05 6.98239 14.0585 6.8089 14.0823 6.6372C14.1423 6.28863 14.3197 5.97106 14.5851 5.7372C14.852 5.50662 15.1924 5.37895 15.5451 5.3772H45.3087C45.4626 5.37886 45.6154 5.40312 45.7623 5.4492C46.0542 5.54688 46.3089 5.73207 46.4919 5.9796C46.5842 6.10061 46.6567 6.23548 46.7067 6.3792C46.7596 6.52166 46.7904 6.6714 46.7979 6.8232C46.8063 7.1232 46.7979 7.4232 46.7979 7.7124V9.468C46.7979 10.6328 46.7979 11.7824 46.7979 12.9168C46.7979 15.1824 46.7979 17.3796 46.7979 19.5084C46.7979 23.7624 46.7979 27.7248 46.7979 31.3428C46.7979 38.5776 46.7907 44.4336 46.7883 48.48C46.7883 49.4916 46.7883 50.3904 46.7883 51.1692C46.7883 51.558 46.7883 51.918 46.7883 52.2492C46.7946 52.4061 46.7853 52.5633 46.7607 52.7184C46.7353 52.858 46.6904 52.9933 46.6275 53.1204C46.5233 53.3327 46.3704 53.5174 46.1811 53.6592C46.0418 53.7595 45.8857 53.8342 45.7203 53.88C45.6629 53.8973 45.6044 53.9105 45.5451 53.9196C45.5027 53.9271 45.4598 53.9319 45.4167 53.934L45.3135 53.9424Z" fill="#263238"/>
<path d="M30.9939 51.7344C30.9989 52.0098 30.9218 52.2805 30.7724 52.5119C30.623 52.7434 30.408 52.9251 30.155 53.0339C29.9019 53.1428 29.6222 53.1738 29.3514 53.123C29.0806 53.0723 28.8311 52.9421 28.6346 52.749C28.4381 52.5559 28.3036 52.3087 28.2481 52.0389C28.1927 51.769 28.2188 51.4888 28.3232 51.2339C28.4276 50.9789 28.6055 50.7609 28.8343 50.6074C29.0631 50.454 29.3324 50.3722 29.6079 50.3724C29.7883 50.3708 29.9673 50.4048 30.1346 50.4724C30.3019 50.5399 30.4543 50.6398 30.583 50.7663C30.7117 50.8928 30.8142 51.0434 30.8847 51.2095C30.9552 51.3756 30.9923 51.5539 30.9939 51.7344Z" fill="white"/>
<path d="M33.774 7.968H27.096C26.9712 7.96425 26.8528 7.91203 26.7658 7.82241C26.6789 7.7328 26.6303 7.61284 26.6304 7.488C26.6303 7.36315 26.6789 7.24319 26.7658 7.15358C26.8528 7.06396 26.9712 7.01174 27.096 7.008H33.774C33.8988 7.01174 34.0172 7.06396 34.1041 7.15358C34.191 7.24319 34.2396 7.36315 34.2396 7.488C34.2396 7.61284 34.191 7.7328 34.1041 7.82241C34.0172 7.91203 33.8988 7.96425 33.774 7.968Z" fill="#263238"/>
<path d="M45.7143 8.8656H15.0771V49.4016H45.7143V8.8656Z" fill="white"/>
<path d="M45.7203 49.4028C45.7203 49.1568 45.7083 32.8908 45.6927 8.86561L45.7203 8.89321H15.0867L15.1179 8.86201C15.1179 23.9508 15.1179 37.9404 15.1119 49.3992L15.0867 49.3728L45.7239 49.3992L15.0867 49.4244H15.0615V49.3992C15.0615 37.9404 15.0615 23.9508 15.0615 8.86201V8.83081H15.0951H45.7287H45.7563V8.85841C45.7203 32.8908 45.7203 49.1568 45.7203 49.4028Z" fill="#263238"/>
<path d="M12.7202 11.1084H18.6434V15.0684C18.6434 15.7947 18.3549 16.4912 17.8414 17.0047C17.3278 17.5183 16.6313 17.8068 15.905 17.8068H15.4586C14.7328 17.8068 14.0366 17.5186 13.5231 17.0056C13.0096 16.4926 12.7209 15.7967 12.7202 15.0708V11.1108V11.1084Z" fill="#FF725E"/>
<path d="M18.6001 11.1084H24.5233V15.0684C24.5233 15.7947 24.2348 16.4912 23.7212 17.0047C23.2077 17.5183 22.5112 17.8068 21.7849 17.8068H21.3385C20.6126 17.8068 19.9165 17.5186 19.403 17.0056C18.8895 16.4926 18.6007 15.7967 18.6001 15.0708V11.1108V11.1084Z" fill="#FF725E"/>
<path d="M24.48 11.1084H30.4032V15.0684C30.4032 15.7947 30.1147 16.4912 29.6011 17.0047C29.0876 17.5183 28.391 17.8068 27.6648 17.8068H27.2184C26.4925 17.8068 25.7964 17.5186 25.2829 17.0056C24.7694 16.4926 24.4806 15.7967 24.48 15.0708V11.1108V11.1084Z" fill="#FF725E"/>
<path d="M30.3604 11.1084H36.2824V15.0684C36.2824 15.7947 35.9938 16.4912 35.4803 17.0047C34.9667 17.5183 34.2702 17.8068 33.544 17.8068H33.0976C32.3719 17.8065 31.6761 17.5182 31.1628 17.0052C30.6496 16.4922 30.361 15.7964 30.3604 15.0708V11.1108V11.1084Z" fill="#FF725E"/>
<path d="M36.2305 11.1084H42.1537V15.0684C42.1537 15.7947 41.8652 16.4912 41.3516 17.0047C40.8381 17.5183 40.1415 17.8068 39.4153 17.8068H38.9689C38.2426 17.8068 37.5461 17.5183 37.0325 17.0047C36.519 16.4912 36.2305 15.7947 36.2305 15.0684V11.1084Z" fill="#FF725E"/>
<path d="M42.1069 11.1084H48.0301V15.0684C48.0301 15.7947 47.7416 16.4912 47.2281 17.0047C46.7145 17.5183 46.018 17.8068 45.2917 17.8068H44.8453C44.1191 17.8068 43.4225 17.5183 42.909 17.0047C42.3954 16.4912 42.1069 15.7947 42.1069 15.0684V11.1084Z" fill="#FF725E"/>
<g opacity="0.3">
<path d="M18.6001 11.1084H24.5233V15.0684C24.5233 15.7947 24.2348 16.4912 23.7212 17.0047C23.2077 17.5183 22.5112 17.8068 21.7849 17.8068H21.3385C20.6126 17.8068 19.9165 17.5186 19.403 17.0056C18.8895 16.4926 18.6007 15.7967 18.6001 15.0708V11.1108V11.1084Z" fill="white"/>
</g>
<g opacity="0.3">
<path d="M30.3604 11.1084H36.2824V15.0684C36.2824 15.7947 35.9938 16.4912 35.4803 17.0047C34.9667 17.5183 34.2702 17.8068 33.544 17.8068H33.0976C32.3719 17.8065 31.6761 17.5182 31.1628 17.0052C30.6496 16.4922 30.361 15.7964 30.3604 15.0708V11.1108V11.1084Z" fill="white"/>
</g>
<g opacity="0.3">
<path d="M42.1069 11.1084H48.0301V15.0684C48.0301 15.7947 47.7416 16.4912 47.2281 17.0047C46.7145 17.5183 46.018 17.8068 45.2917 17.8068H44.8453C44.1191 17.8068 43.4225 17.5183 42.909 17.0047C42.3954 16.4912 42.1069 15.7947 42.1069 15.0684V11.1084Z" fill="white"/>
</g>
<path d="M18.6494 11.04C18.6662 11.04 18.6806 12.0792 18.6806 13.3608C18.6806 14.6424 18.6662 15.6816 18.6494 15.6816C18.6326 15.6816 18.6182 14.6424 18.6182 13.3608C18.6182 12.0792 18.6326 11.04 18.6494 11.04Z" fill="#263238"/>
<path d="M24.5258 11.04C24.5426 11.04 24.5558 12.0792 24.5558 13.3608C24.5558 14.6424 24.5426 15.6816 24.5258 15.6816C24.509 15.6816 24.4946 14.6424 24.4946 13.3608C24.4946 12.0792 24.5078 11.04 24.5258 11.04Z" fill="#263238"/>
<path d="M30.4023 11.04C30.4191 11.04 30.4323 12.0792 30.4323 13.3608C30.4323 14.6424 30.4191 15.6816 30.4023 15.6816C30.3855 15.6816 30.3711 14.6424 30.3711 13.3608C30.3711 12.0792 30.3843 11.04 30.4023 11.04Z" fill="#263238"/>
<path d="M36.2776 11.04C36.2956 11.04 36.3088 12.0792 36.3088 13.3608C36.3088 14.6424 36.2956 15.6816 36.2776 15.6816C36.2596 15.6816 36.2476 14.6424 36.2476 13.3608C36.2476 12.0792 36.2608 11.04 36.2776 11.04Z" fill="#263238"/>
<path d="M42.1537 11.04C42.1717 11.04 42.1849 12.0792 42.1849 13.3608C42.1849 14.6424 42.1717 15.6816 42.1537 15.6816C42.1357 15.6816 42.1201 14.64 42.1201 13.356C42.1201 12.072 42.1369 11.04 42.1537 11.04Z" fill="#263238"/>
<path d="M48.0301 11.1204L45.7357 8.8656H15.0877L12.7261 11.1204H48.0301Z" fill="#FF725E"/>
<path d="M47.1901 11.0892C47.1901 11.106 39.4741 11.1264 29.9593 11.136C20.4445 11.1456 12.7261 11.136 12.7261 11.1204C12.7261 11.1048 20.4397 11.082 29.9593 11.0736C39.4789 11.0652 47.1901 11.0712 47.1901 11.0892Z" fill="#263238"/>
<path d="M22.3143 31.2996H18.4791C18.2544 31.2996 18.0723 31.4818 18.0723 31.7064V31.8432C18.0723 32.0679 18.2544 32.25 18.4791 32.25H22.3143C22.5389 32.25 22.7211 32.0679 22.7211 31.8432V31.7064C22.7211 31.4818 22.5389 31.2996 22.3143 31.2996Z" fill="#E0E0E0"/>
<path d="M27.9601 31.236H26.5225C26.2979 31.236 26.1157 31.4182 26.1157 31.6428V31.7076C26.1157 31.9323 26.2979 32.1144 26.5225 32.1144H27.9601C28.1848 32.1144 28.3669 31.9323 28.3669 31.7076V31.6428C28.3669 31.4182 28.1848 31.236 27.9601 31.236Z" fill="#FF725E"/>
<path d="M22.3143 46.9284H18.4791C18.2544 46.9284 18.0723 47.1105 18.0723 47.3352V47.472C18.0723 47.6967 18.2544 47.8788 18.4791 47.8788H22.3143C22.5389 47.8788 22.7211 47.6967 22.7211 47.472V47.3352C22.7211 47.1105 22.5389 46.9284 22.3143 46.9284Z" fill="#E0E0E0"/>
<path d="M27.5763 46.9284H25.9551C25.7305 46.9284 25.5483 47.1105 25.5483 47.3352V47.472C25.5483 47.6967 25.7305 47.8788 25.9551 47.8788H27.5763C27.801 47.8788 27.9831 47.6967 27.9831 47.472V47.3352C27.9831 47.1105 27.801 46.9284 27.5763 46.9284Z" fill="#FF725E"/>
<path d="M37.6141 31.4364H33.7789C33.5542 31.4364 33.3721 31.6185 33.3721 31.8432V31.98C33.3721 32.2047 33.5542 32.3868 33.7789 32.3868H37.6141C37.8387 32.3868 38.0209 32.2047 38.0209 31.98V31.8432C38.0209 31.6185 37.8387 31.4364 37.6141 31.4364Z" fill="#E0E0E0"/>
<path d="M42.8918 31.4364H41.2706C41.0459 31.4364 40.8638 31.6185 40.8638 31.8432V31.98C40.8638 32.2047 41.0459 32.3868 41.2706 32.3868H42.8918C43.1164 32.3868 43.2986 32.2047 43.2986 31.98V31.8432C43.2986 31.6185 43.1164 31.4364 42.8918 31.4364Z" fill="#FF725E"/>
<path d="M37.6668 47.0664H33.8316C33.6069 47.0664 33.4248 47.2485 33.4248 47.4732V47.61C33.4248 47.8347 33.6069 48.0168 33.8316 48.0168H37.6668C37.8915 48.0168 38.0736 47.8347 38.0736 47.61V47.4732C38.0736 47.2485 37.8915 47.0664 37.6668 47.0664Z" fill="#E0E0E0"/>
<path d="M42.9445 47.0664H41.3233C41.0986 47.0664 40.9165 47.2485 40.9165 47.4732V47.61C40.9165 47.8347 41.0986 48.0168 41.3233 48.0168H42.9445C43.1692 48.0168 43.3513 47.8347 43.3513 47.61V47.4732C43.3513 47.2485 43.1692 47.0664 42.9445 47.0664Z" fill="#FF725E"/>
<path d="M26.7889 18.99H18.6529C17.8808 18.99 17.2549 19.6159 17.2549 20.388V28.524C17.2549 29.2961 17.8808 29.922 18.6529 29.922H26.7889C27.561 29.922 28.1869 29.2961 28.1869 28.524V20.388C28.1869 19.6159 27.561 18.99 26.7889 18.99Z" fill="#FAFAFA"/>
<path d="M26.7901 29.9232C26.7901 29.9232 26.8261 29.9232 26.8957 29.9148C26.9994 29.9043 27.1018 29.8842 27.2017 29.8548C27.3625 29.8012 27.5128 29.72 27.6457 29.6148C27.8267 29.4714 27.9693 29.2855 28.0609 29.0736C28.1142 28.9472 28.1494 28.8138 28.1653 28.6776C28.1773 28.5348 28.1725 28.3824 28.1725 28.2228C28.1725 27.9048 28.1725 27.5592 28.1725 27.1884C28.1725 26.4456 28.1725 25.5996 28.1725 24.6684C28.1725 23.7372 28.1725 22.71 28.1725 21.6108C28.1725 21.3356 28.1725 21.0556 28.1725 20.7708C28.1725 20.4876 28.1977 20.1948 28.0897 19.9248C27.9904 19.6486 27.8054 19.4115 27.5617 19.248C27.3087 19.0833 27.01 19.0031 26.7085 19.0188H18.6685C18.32 19.0191 17.9848 19.1523 17.7312 19.3914C17.4777 19.6305 17.3249 19.9573 17.3041 20.3052C17.2957 20.9964 17.3041 21.6828 17.3041 22.3548C17.3041 23.7 17.3041 24.9948 17.3041 26.2344C17.3041 26.8528 17.3041 27.4548 17.3041 28.0404C17.3041 28.1868 17.3041 28.332 17.3041 28.4772C17.3015 28.6178 17.3193 28.758 17.3569 28.8936C17.431 29.16 17.5842 29.3976 17.7961 29.5752C18.0001 29.7477 18.2507 29.8559 18.5161 29.886C18.6459 29.8958 18.776 29.899 18.9061 29.8956H20.7601L25.1893 29.9064H26.3893L25.1893 29.9124L20.7601 29.922H19.2937H18.9061C18.7765 29.922 18.6457 29.922 18.5101 29.9124C18.3748 29.8954 18.2424 29.8603 18.1165 29.808C17.9896 29.7518 17.8705 29.6792 17.7625 29.592C17.5431 29.4072 17.3839 29.161 17.3053 28.8852C17.2664 28.745 17.2482 28.5998 17.2513 28.4544C17.2513 28.3092 17.2513 28.164 17.2513 28.0176C17.2513 27.432 17.2513 26.83 17.2513 26.2116C17.2513 24.9756 17.2513 23.6772 17.2513 22.332C17.2513 21.6588 17.2513 20.9772 17.2513 20.2788C17.2783 19.9235 17.4371 19.5911 17.6967 19.3471C17.9563 19.103 18.2979 18.9649 18.6541 18.96H26.6941C27.0069 18.9444 27.3166 19.0284 27.5785 19.2C27.8313 19.3707 28.0234 19.6174 28.1269 19.9044C28.1776 20.0438 28.2056 20.1905 28.2097 20.3388C28.2097 20.484 28.2097 20.6256 28.2097 20.7684V21.6084C28.2097 22.7076 28.2097 23.7312 28.2097 24.666C28.2097 25.6008 28.2097 26.4468 28.2097 27.186C28.2097 27.5568 28.2097 27.906 28.2097 28.2204C28.2097 28.38 28.2097 28.5324 28.1989 28.6788C28.1816 28.8171 28.1453 28.9524 28.0909 29.0808C27.9958 29.2949 27.8495 29.4824 27.6649 29.6268C27.5294 29.7327 27.3763 29.814 27.2125 29.8668C27.1119 29.8954 27.0085 29.9135 26.9041 29.9208L26.7901 29.9232Z" fill="#FF725E"/>
<path d="M27.0841 24.1464C27.0841 24.1464 25.9549 21.8592 25.7821 21.6852C25.6571 21.5821 25.5181 21.4973 25.3693 21.4332C25.2851 21.3898 25.1981 21.3521 25.1089 21.3204L25.0909 21.3132C24.6037 21.1332 23.8405 20.9532 23.8405 20.9532C23.8405 20.9532 23.6461 21.6156 22.7209 21.6636C21.7969 21.6156 21.6025 20.9532 21.6025 20.9532C21.6025 20.9532 20.8381 21.138 20.3521 21.3132L20.3329 21.3204C20.244 21.3521 20.1574 21.3898 20.0737 21.4332C19.9246 21.4967 19.7855 21.5816 19.6609 21.6852C19.4869 21.8592 18.3589 24.1464 18.3589 24.1464L20.0089 24.972L20.5105 23.8308L20.4001 27.96H25.0801L24.9397 23.826L25.4413 24.9672L27.0841 24.1464Z" fill="#FF725E"/>
<path d="M20.5106 24.8544C20.4973 24.7289 20.4933 24.6025 20.4986 24.4764C20.4986 24.2364 20.4986 23.9148 20.5082 23.5464V23.5584L20.4422 23.3952C20.291 23.0136 20.1566 22.668 20.0618 22.4172C20.015 22.2912 19.9778 22.1892 19.9538 22.1172C19.9386 22.0814 19.9277 22.044 19.9214 22.0056C19.9441 22.0373 19.9623 22.072 19.9754 22.1088C20.0078 22.1772 20.051 22.2768 20.1026 22.4004C20.207 22.6476 20.3426 22.9908 20.4998 23.3712C20.5214 23.4276 20.5442 23.4828 20.5646 23.5356V23.5416C20.5562 23.91 20.5454 24.2364 20.5346 24.4716C20.5367 24.5996 20.5287 24.7276 20.5106 24.8544Z" fill="#263238"/>
<path d="M24.9219 24.8544C24.9033 24.7296 24.8941 24.6037 24.8943 24.4776C24.8835 24.2376 24.8727 23.916 24.8643 23.5476V23.5416C24.8847 23.4888 24.9063 23.4336 24.9291 23.3772C25.0803 22.9968 25.2207 22.6572 25.3263 22.4064C25.3779 22.2864 25.4211 22.1832 25.4523 22.1148C25.4835 22.0464 25.5027 22.0092 25.5075 22.0116C25.5011 22.0499 25.4902 22.0874 25.4751 22.1232C25.4511 22.1952 25.4139 22.2972 25.3659 22.4232C25.2723 22.674 25.1379 23.0232 24.9867 23.4012L24.9207 23.5644V23.5524C24.9279 23.9208 24.9303 24.2472 24.9303 24.4824C24.9369 24.6064 24.9341 24.7308 24.9219 24.8544Z" fill="#263238"/>
<path d="M24.0086 24.456C24.0086 24.456 24.0554 24.456 24.1346 24.4308C24.2313 24.4047 24.319 24.3523 24.3878 24.2794C24.4566 24.2066 24.504 24.1161 24.5246 24.018C24.5355 23.9212 24.5383 23.8237 24.533 23.7264C24.533 23.514 24.533 23.2788 24.533 23.0268L24.563 23.0556H23.2586L23.2886 23.0256C23.2886 23.3028 23.2886 23.5632 23.2886 23.7984C23.2886 23.8572 23.2886 23.9184 23.2886 23.9664C23.2961 24.0371 23.3179 24.1055 23.3528 24.1674C23.3876 24.2293 23.4348 24.2834 23.4914 24.3264C23.5973 24.4082 23.7284 24.4506 23.8622 24.4464C23.9116 24.4448 23.961 24.448 24.0098 24.456C23.9611 24.465 23.9116 24.4686 23.8622 24.4668C23.7225 24.4808 23.5825 24.4432 23.4686 24.3612C23.3882 24.3031 23.3245 24.2249 23.2838 24.1344C23.2613 24.0833 23.2464 24.0291 23.2394 23.9736C23.2334 23.9148 23.2394 23.8536 23.2334 23.7996C23.2334 23.5596 23.2334 23.304 23.2334 23.0268V22.9968H24.5882V23.0268C24.5882 23.2788 24.5882 23.514 24.5882 23.7264C24.5922 23.8267 24.587 23.9271 24.5726 24.0264C24.5523 24.1148 24.5111 24.1971 24.4526 24.2664C24.3733 24.3632 24.2631 24.4297 24.1406 24.4548C24.1087 24.4619 24.0761 24.4651 24.0434 24.4644C24.0206 24.4596 24.0086 24.4584 24.0086 24.456Z" fill="#263238"/>
<path d="M26.7889 34.4772H18.6529C17.8808 34.4772 17.2549 35.1031 17.2549 35.8752V44.0112C17.2549 44.7833 17.8808 45.4092 18.6529 45.4092H26.7889C27.561 45.4092 28.1869 44.7833 28.1869 44.0112V35.8752C28.1869 35.1031 27.561 34.4772 26.7889 34.4772Z" fill="#FAFAFA"/>
<path d="M26.7904 45.4104C26.7904 45.4104 26.8264 45.4104 26.896 45.4008C26.9997 45.3915 27.1022 45.3718 27.202 45.342C27.3628 45.2884 27.5131 45.2072 27.646 45.102C27.827 44.9586 27.9696 44.7727 28.0612 44.5608C28.1145 44.4344 28.1497 44.3011 28.1656 44.1648C28.1776 44.022 28.1728 43.8696 28.1728 43.71C28.1728 43.392 28.1728 43.0464 28.1728 42.6756C28.1728 41.9328 28.1728 41.0868 28.1728 40.1556C28.1728 39.2244 28.1728 38.1972 28.1728 37.098C28.1728 36.8236 28.1728 36.5436 28.1728 36.258C28.1728 35.9748 28.198 35.682 28.09 35.418C27.9907 35.1418 27.8057 34.9047 27.562 34.7412C27.309 34.5765 27.0103 34.4963 26.7088 34.512H18.6688C18.3203 34.5123 17.9851 34.6456 17.7315 34.8846C17.478 35.1237 17.3252 35.4505 17.3044 35.7984C17.296 36.4884 17.3044 37.176 17.3044 37.848C17.3044 39.1932 17.3044 40.488 17.3044 41.7276C17.3044 42.346 17.3044 42.948 17.3044 43.5336C17.3044 43.68 17.3044 43.8252 17.3044 43.9704C17.3018 44.111 17.3196 44.2513 17.3572 44.3868C17.4317 44.653 17.5847 44.8906 17.7964 45.0684C18.0004 45.241 18.251 45.3491 18.5164 45.3792C18.6462 45.389 18.7763 45.3922 18.9064 45.3888H20.7604L25.1896 45.3996L20.7604 45.4092H18.8836C18.754 45.4092 18.6232 45.4092 18.4876 45.3996C18.3523 45.3827 18.2199 45.3475 18.094 45.2952C17.9671 45.239 17.848 45.1664 17.74 45.0792C17.5242 44.9021 17.3646 44.6662 17.2804 44.4C17.2415 44.2598 17.2233 44.1147 17.2264 43.9692C17.2264 43.824 17.2264 43.6788 17.2264 43.5324C17.2264 42.9468 17.2264 42.3448 17.2264 41.7264C17.2264 40.4904 17.2264 39.192 17.2264 37.8468C17.2264 37.1736 17.2264 36.4908 17.2264 35.7936C17.2476 35.4299 17.407 35.0881 17.6721 34.8382C17.9371 34.5883 18.2877 34.4493 18.652 34.4496H26.692C27.0048 34.434 27.3144 34.518 27.5764 34.6896C27.8292 34.8604 28.0213 35.107 28.1248 35.394C28.1756 35.5334 28.2036 35.6801 28.2076 35.8284C28.2076 35.9736 28.2076 36.1152 28.2076 36.258V37.098C28.2076 38.1972 28.2076 39.2208 28.2076 40.1556C28.2076 41.0904 28.2076 41.9364 28.2076 42.6756C28.2076 43.0464 28.2076 43.3956 28.2076 43.71C28.2076 43.8696 28.2076 44.022 28.1968 44.1684C28.1797 44.3064 28.1433 44.4413 28.0888 44.5692C27.994 44.7839 27.8477 44.9718 27.6628 45.1164C27.5273 45.2224 27.3742 45.3036 27.2104 45.3564C27.1098 45.385 27.0064 45.4031 26.902 45.4104H26.7904Z" fill="#E0E0E0"/>
<path d="M23.8408 36.4356C23.8408 36.4356 24.604 36.6204 25.0912 36.7956L25.1092 36.8028C25.1984 36.8345 25.2854 36.8722 25.3696 36.9156C25.5184 36.9797 25.6573 37.0645 25.7824 37.1676C25.9552 37.3416 27.0844 39.6288 27.0844 39.6288L25.4332 40.4544L24.9316 39.3132L25.072 43.4472H20.4004L20.5144 39.3132L20.0128 40.4544L18.3604 39.6336C18.3604 39.6336 19.4884 37.3464 19.6624 37.1724C19.787 37.0688 19.926 36.9839 20.0752 36.9204C20.1589 36.877 20.2455 36.8393 20.3344 36.8076L20.3536 36.8004C20.8396 36.6204 21.604 36.4404 21.604 36.4404L21.7348 35.9952L22.6816 36.6264L23.7412 35.9952L23.8408 36.4356Z" fill="#E0E0E0"/>
<path d="M20.5106 40.3416C20.4973 40.216 20.4933 40.0897 20.4986 39.9636C20.4986 39.7236 20.4986 39.402 20.5082 39.0336V39.0456L20.4422 38.8812C20.291 38.5008 20.1566 38.1552 20.0618 37.9044C20.015 37.7784 19.9778 37.6764 19.9538 37.6044C19.9383 37.5683 19.9274 37.5304 19.9214 37.4916C19.9436 37.524 19.9617 37.5591 19.9754 37.596C20.0078 37.6644 20.051 37.764 20.1026 37.8876C20.207 38.1348 20.3426 38.478 20.4998 38.8584C20.5214 38.9148 20.5442 38.97 20.5646 39.0228V39.0288V39.0348C20.5562 39.4032 20.5454 39.7296 20.5346 39.9648C20.5364 40.0908 20.5284 40.2168 20.5106 40.3416Z" fill="#263238"/>
<path d="M24.9675 40.3752C24.9439 40.2476 24.9298 40.1184 24.9255 39.9888C24.9075 39.7488 24.8859 39.4128 24.8643 39.036V39.0288V39.0228L24.9219 38.8752C25.0755 38.49 25.2183 38.1432 25.3239 37.8924C25.3767 37.7724 25.4199 37.6668 25.4523 37.5972C25.4652 37.5594 25.4838 37.5238 25.5075 37.4916C25.5017 37.5329 25.4904 37.5733 25.4739 37.6116C25.4499 37.6824 25.4115 37.7868 25.3647 37.914C25.2687 38.1684 25.1331 38.514 24.9795 38.9028L24.9207 39.0504V39.0372C24.9399 39.414 24.9543 39.75 24.9627 39.9972C24.9736 40.1229 24.9752 40.2492 24.9675 40.3752Z" fill="#263238"/>
<path d="M24.0086 39.9432C24.0086 39.9432 24.0554 39.9432 24.1346 39.918C24.2313 39.8918 24.319 39.8394 24.3878 39.7666C24.4566 39.6937 24.504 39.6033 24.5246 39.5052C24.5355 39.4084 24.5383 39.3109 24.533 39.2136C24.533 39.0012 24.533 38.766 24.533 38.514L24.563 38.5428H23.2586L23.2886 38.5128C23.2886 38.79 23.2886 39.0504 23.2886 39.2856C23.2886 39.3444 23.2886 39.4056 23.2886 39.4536C23.2961 39.5243 23.3179 39.5927 23.3528 39.6546C23.3876 39.7165 23.4348 39.7706 23.4914 39.8136C23.5973 39.8954 23.7284 39.9378 23.8622 39.9336C23.9116 39.932 23.961 39.9352 24.0098 39.9432C23.9611 39.9521 23.9116 39.9558 23.8622 39.954C23.7225 39.9679 23.5825 39.9304 23.4686 39.8484C23.3882 39.7903 23.3245 39.7121 23.2838 39.6216C23.2613 39.5704 23.2464 39.5163 23.2394 39.4608C23.2334 39.402 23.2394 39.3408 23.2334 39.2868C23.2334 39.0468 23.2334 38.7912 23.2334 38.514V38.484H24.5882V38.52C24.5882 38.772 24.5882 39.0072 24.5882 39.2196C24.5922 39.3199 24.587 39.4203 24.5726 39.5196C24.552 39.6079 24.5109 39.6901 24.4526 39.7596C24.3733 39.8564 24.2631 39.9229 24.1406 39.948C24.1087 39.9551 24.0761 39.9583 24.0434 39.9576C24.0206 39.9468 24.0086 39.9456 24.0086 39.9432Z" fill="#263238"/>
<path d="M20.1924 40.0416C19.9085 39.9306 19.6326 39.7999 19.3668 39.6504C19.0911 39.5197 18.8245 39.3706 18.5688 39.204C18.8532 39.3151 19.1294 39.4458 19.3956 39.5952C19.6706 39.7266 19.9368 39.8757 20.1924 40.0416Z" fill="#263238"/>
<path d="M42.2176 19.1604H34.0816C33.3095 19.1604 32.6836 19.7863 32.6836 20.5584V28.6944C32.6836 29.4665 33.3095 30.0924 34.0816 30.0924H42.2176C42.9897 30.0924 43.6156 29.4665 43.6156 28.6944V20.5584C43.6156 19.7863 42.9897 19.1604 42.2176 19.1604Z" fill="#FAFAFA"/>
<path d="M42.2175 30.0924L42.3243 30.084C42.4278 30.0747 42.5299 30.0546 42.6291 30.024C42.7903 29.9711 42.9406 29.8898 43.0731 29.784C43.2547 29.6409 43.3978 29.4549 43.4895 29.2428C43.5417 29.1165 43.5765 28.9837 43.5927 28.848C43.6059 28.7052 43.5999 28.5528 43.6011 28.3932C43.6011 28.0752 43.6011 27.7296 43.6011 27.3588C43.6011 26.6148 43.6011 25.77 43.6011 24.8388C43.6011 23.9076 43.6011 22.8792 43.6011 21.78C43.6011 21.5048 43.6011 21.2248 43.6011 20.94C43.6011 20.6556 43.6251 20.364 43.5183 20.1C43.419 19.8235 43.2335 19.5863 42.9891 19.4232C42.7364 19.2578 42.4375 19.1775 42.1359 19.194H34.0959C33.7477 19.194 33.4126 19.3271 33.1592 19.566C32.9058 19.8049 32.7532 20.1315 32.7327 20.4792C32.7243 21.1704 32.7327 21.858 32.7327 22.53C32.7327 23.8752 32.7327 25.17 32.7327 26.4096C32.7327 27.028 32.7327 27.63 32.7327 28.2156V28.6512C32.7298 28.7921 32.7472 28.9328 32.7843 29.0688C32.8597 29.3343 33.0127 29.5712 33.2235 29.7492C33.3268 29.8347 33.4415 29.9054 33.5643 29.9592C33.6854 30.0103 33.813 30.0443 33.9435 30.06C34.0737 30.0702 34.2042 30.0738 34.3347 30.0708H34.7211H36.1887L40.6167 30.0804L41.8167 30.0864L40.6167 30.0924L36.1887 30.1032H34.3119C34.1823 30.1032 34.0503 30.1032 33.9147 30.0924C33.7794 30.0763 33.647 30.0416 33.5211 29.9892C33.3941 29.9333 33.2754 29.8602 33.1683 29.772C32.9485 29.5881 32.7891 29.3422 32.7111 29.0664C32.6723 28.9257 32.6537 28.7803 32.6559 28.6344V28.1988C32.6559 27.6132 32.6559 27.0112 32.6559 26.3928C32.6559 25.1556 32.6559 23.8584 32.6559 22.5132C32.6559 21.84 32.6559 21.1572 32.6559 20.4588C32.6811 20.0981 32.8421 19.7604 33.1064 19.5136C33.3708 19.2669 33.7188 19.1295 34.0803 19.1292H42.1203C42.4331 19.114 42.7426 19.198 43.0047 19.3692C43.2606 19.5395 43.4553 19.7871 43.5603 20.076C43.612 20.2151 43.64 20.362 43.6431 20.5104C43.6431 20.6568 43.6431 20.7984 43.6431 20.9412C43.6431 21.2244 43.6431 21.504 43.6431 21.7812C43.6431 22.8804 43.6431 23.9052 43.6431 24.84C43.6431 25.7748 43.6431 26.6196 43.6431 27.36C43.6431 27.7308 43.6431 28.08 43.6431 28.3944C43.6431 28.554 43.6431 28.7052 43.6323 28.8516C43.6154 28.99 43.579 29.1253 43.5243 29.2536C43.4303 29.4684 43.2838 29.6561 43.0983 29.7996C42.9637 29.9062 42.8108 29.9875 42.6471 30.0396C42.5463 30.0694 42.4425 30.0875 42.3375 30.0936C42.2535 30.0936 42.2175 30.0924 42.2175 30.0924Z" fill="#E0E0E0"/>
<path d="M39.2476 21.12C39.2476 21.12 40.0108 21.3048 40.498 21.48L40.516 21.4872C40.6053 21.5189 40.6923 21.5566 40.7764 21.6C40.9257 21.6632 41.0648 21.7481 41.1892 21.852C41.362 22.0248 42.4912 24.3132 42.4912 24.3132L40.84 25.1388L40.3384 24L40.4788 28.1352H35.7988L35.9128 24L35.4112 25.1424L33.7612 24.3168C33.7612 24.3168 34.8892 22.0284 35.0632 21.8556C35.1873 21.7512 35.3265 21.6662 35.476 21.6036C35.5598 21.5602 35.6464 21.5225 35.7352 21.4908L35.7604 21.48C36.2464 21.3 37.0108 21.12 37.0108 21.12L36.9928 20.328H39.226L39.2476 21.12Z" fill="#455A64"/>
<path d="M36.9436 28.032L33.904 26.142C33.6924 25.9884 33.5414 25.7653 33.4776 25.5118C33.4137 25.2582 33.4411 24.9902 33.5548 24.7548L33.766 24.3168L35.416 25.1424L37.696 26.8488L36.9436 28.032Z" fill="#455A64"/>
<path d="M34.8231 24.7968C34.8378 24.8015 34.8519 24.808 34.8651 24.816L34.9851 24.8784L35.4279 25.1268C35.9343 25.4976 36.7611 26.1108 37.7079 26.8236L37.7307 26.8404L37.7163 26.8644L37.4763 27.2472C37.2999 27.5244 37.1295 27.7932 36.9675 28.0464L36.9519 28.0716L36.9267 28.056L35.0847 26.898L34.5495 26.5548L34.4067 26.46C34.3899 26.45 34.3743 26.4383 34.3599 26.4252C34.3599 26.4252 34.3791 26.4324 34.4127 26.4516L34.5603 26.5368L35.1051 26.8656L36.9603 28.0056L36.9195 28.0152C37.0803 27.762 37.2507 27.492 37.4271 27.216L37.6671 26.832L37.6755 26.874C36.7239 26.154 35.9031 25.5384 35.4051 25.1556L34.9707 24.894L34.8579 24.822C34.8451 24.8153 34.8334 24.8068 34.8231 24.7968Z" fill="#263238"/>
<path d="M39.2905 27.996L42.3301 26.106C42.5415 25.9525 42.6922 25.7296 42.756 25.4763C42.8199 25.223 42.7927 24.9553 42.6793 24.72L42.4681 24.282L40.8181 25.1076L38.5381 26.8152L39.2905 27.996Z" fill="#455A64"/>
<path d="M41.4111 24.7608C41.4 24.7717 41.3875 24.7809 41.3739 24.7884L41.2611 24.8592L40.8267 25.122C40.3287 25.5036 39.5067 26.1252 38.5563 26.8392L38.5635 26.7984L38.8035 27.1812L39.3111 27.9816L39.2703 27.972L41.1231 26.832L41.6679 26.5044L41.8155 26.418C41.8319 26.4071 41.8496 26.3982 41.8683 26.3916C41.8538 26.4056 41.8377 26.4177 41.8203 26.4276L41.6787 26.5212L41.1435 26.8644L39.3015 28.0224L39.2763 28.038L39.2607 28.0128L38.7603 27.2136C38.6775 27.0816 38.5947 26.952 38.5203 26.8296L38.5059 26.8056L38.5287 26.7888C39.4815 26.076 40.3083 25.4628 40.8147 25.0932L41.2575 24.8448L41.3775 24.7812C41.3878 24.7731 41.3991 24.7663 41.4111 24.7608Z" fill="#263238"/>
<path d="M37.3909 21.2028C37.3602 21.0614 37.3497 20.9163 37.3597 20.772C37.3496 20.6276 37.3601 20.4826 37.3909 20.3412C37.4216 20.4826 37.4321 20.6276 37.4221 20.772C37.432 20.9163 37.4215 21.0614 37.3909 21.2028Z" fill="#263238"/>
<path d="M37.8757 21.2028C37.8451 21.0614 37.8346 20.9163 37.8445 20.772C37.8345 20.6276 37.845 20.4826 37.8757 20.3412C37.9065 20.4826 37.917 20.6276 37.9069 20.772C37.9169 20.9163 37.9064 21.0614 37.8757 21.2028Z" fill="#263238"/>
<path d="M38.3185 21.1932C38.2879 21.0518 38.2774 20.9068 38.2873 20.7624C38.2774 20.6181 38.2879 20.473 38.3185 20.3316C38.3492 20.473 38.3597 20.6181 38.3497 20.7624C38.3597 20.9068 38.3492 21.0518 38.3185 21.1932Z" fill="#263238"/>
<path d="M38.8083 21.1932C38.7776 21.0518 38.7671 20.9068 38.7771 20.7624C38.7671 20.6181 38.7776 20.473 38.8083 20.3316C38.8389 20.473 38.8494 20.6181 38.8395 20.7624C38.8494 20.9068 38.8389 21.0518 38.8083 21.1932Z" fill="#263238"/>
<path d="M40.3765 24.7968H35.9725L35.9209 23.6748H40.3009L40.3765 24.7968Z" fill="#E0E0E0"/>
<path d="M35.8933 24.9828C35.879 24.8558 35.8746 24.7278 35.8801 24.6C35.8801 24.366 35.8801 24.0384 35.8897 23.6712V23.6832C35.8717 23.6376 35.8537 23.5896 35.8345 23.5416C35.6869 23.166 35.5561 22.8216 35.4649 22.5816C35.4193 22.4616 35.3833 22.3572 35.3593 22.2876C35.3441 22.252 35.3336 22.2144 35.3281 22.176C35.3504 22.2076 35.3685 22.2419 35.3821 22.278C35.4121 22.3464 35.4541 22.4436 35.5021 22.566C35.6041 22.806 35.7421 23.148 35.8885 23.526C35.9065 23.574 35.9257 23.622 35.9437 23.6676V23.6736V23.6796C35.9353 24.0468 35.9245 24.3732 35.9137 24.6084C35.9166 24.7336 35.9097 24.8587 35.8933 24.9828Z" fill="#263238"/>
<path d="M40.373 25.0236C40.3494 24.8997 40.3357 24.7741 40.3322 24.648C40.313 24.408 40.2914 24.0864 40.271 23.718V23.712V23.7048C40.2914 23.6532 40.313 23.598 40.3358 23.5428C40.487 23.1612 40.6274 22.8228 40.7318 22.5708C40.7846 22.4508 40.8278 22.3476 40.859 22.2792C40.8727 22.2423 40.8908 22.2073 40.913 22.1748C40.9086 22.2138 40.898 22.2519 40.8818 22.2876C40.8578 22.3584 40.8206 22.4616 40.7726 22.5864C40.679 22.8384 40.5446 23.1864 40.3922 23.5656C40.3706 23.6208 40.349 23.676 40.3274 23.7276V23.7156C40.3466 24.084 40.361 24.4104 40.3682 24.6456C40.3798 24.7713 40.3814 24.8977 40.373 25.0236Z" fill="#263238"/>
<path d="M37.1533 27.7296C36.8709 27.5856 36.6083 27.4057 36.3721 27.1944C36.518 27.2561 36.6552 27.3368 36.7801 27.4344C36.9169 27.516 37.0423 27.6153 37.1533 27.7296Z" fill="#263238"/>
<path d="M37.4329 27.3252C37.3069 27.239 37.1867 27.1448 37.0729 27.0432C36.947 26.9582 36.8268 26.8652 36.7129 26.7648C37.0005 26.8807 37.2499 27.0748 37.4329 27.3252Z" fill="#263238"/>
<path d="M39.4034 26.7684C39.1999 26.9308 38.9713 27.0589 38.7266 27.1476C38.8224 27.0594 38.9313 26.9865 39.0494 26.9316C39.1584 26.8595 39.2778 26.8045 39.4034 26.7684Z" fill="#263238"/>
<path d="M39.7453 27.1836C39.6547 27.2753 39.5502 27.3522 39.4358 27.4116C39.3321 27.4886 39.2166 27.5482 39.0938 27.588C39.1844 27.4963 39.2889 27.4194 39.4033 27.36C39.507 27.283 39.6225 27.2234 39.7453 27.1836Z" fill="#263238"/>
<path d="M23.7998 36.48C23.7293 36.5577 23.6526 36.6295 23.5706 36.6948C23.423 36.8244 23.2106 37.0056 22.9634 37.2168L22.9358 37.2396L22.919 37.2072L22.6478 36.6828H22.7042V36.6888L22.5002 37.2072L22.4846 37.2468L22.4546 37.2192C22.2026 36.996 21.9878 36.8028 21.8366 36.6636C21.7536 36.5942 21.6762 36.5183 21.605 36.4368C21.6948 36.4975 21.7802 36.5645 21.8606 36.6372C22.0178 36.768 22.2374 36.9552 22.493 37.1748L22.4462 37.1868L22.6466 36.6672V36.66L22.6718 36.5952L22.703 36.6564L22.9706 37.1832L22.9262 37.1748C23.1782 36.9672 23.3942 36.792 23.5478 36.6696C23.6267 36.6 23.711 36.5366 23.7998 36.48Z" fill="#263238"/>
<path d="M22.7223 43.4184C22.7169 43.3936 22.7145 43.3682 22.7151 43.3428C22.7151 43.2864 22.7151 43.2132 22.7151 43.1244C22.7151 42.9264 22.7151 42.654 22.7055 42.3204C22.7055 41.6352 22.7055 40.7016 22.6971 39.6708C22.6971 38.8428 22.6971 38.0784 22.6971 37.458H22.7463C22.7463 37.6008 22.7463 37.7328 22.7463 37.8576H22.7019C22.7019 37.512 22.7091 37.23 22.7115 37.026C22.7115 36.9324 22.7115 36.858 22.7115 36.7992C22.7108 36.773 22.7132 36.7468 22.7187 36.7212C22.7226 36.747 22.7246 36.7731 22.7247 36.7992C22.7247 36.858 22.7247 36.9324 22.7247 37.026C22.7247 37.23 22.7307 37.512 22.7343 37.8576H22.6899C22.6899 37.7376 22.6899 37.6008 22.6899 37.458H22.7391C22.7391 38.0784 22.7391 38.8428 22.7391 39.6708C22.7391 40.7016 22.7391 41.6352 22.7307 42.3204C22.7307 42.654 22.7235 42.9264 22.7211 43.1244C22.7211 43.2132 22.7211 43.2864 22.7211 43.3428C22.7233 43.3679 22.7237 43.3932 22.7223 43.4184Z" fill="#263238"/>
<path d="M26.8504 39.0996C26.7858 39.1617 26.7137 39.2153 26.6356 39.2592C26.4988 39.3492 26.3032 39.4668 26.0812 39.5832C25.8592 39.6996 25.6516 39.7932 25.4992 39.8544C25.4195 39.8943 25.3347 39.923 25.2472 39.9396C25.24 39.9228 25.6072 39.7608 26.0524 39.528C26.4976 39.2952 26.8396 39.0852 26.8504 39.0996Z" fill="#263238"/>
<path d="M42.2029 34.4052H34.0669C33.2949 34.4052 32.6689 35.0311 32.6689 35.8032V43.9392C32.6689 44.7113 33.2949 45.3372 34.0669 45.3372H42.2029C42.975 45.3372 43.6009 44.7113 43.6009 43.9392V35.8032C43.6009 35.0311 42.975 34.4052 42.2029 34.4052Z" fill="#FAFAFA"/>
<path d="M42.2041 45.3372L42.3109 45.3288C42.4143 45.3189 42.5164 45.2988 42.6157 45.2688C42.7765 45.2152 42.9268 45.134 43.0597 45.0288C43.241 44.8857 43.3837 44.6997 43.4749 44.4876C43.5282 44.3612 43.5634 44.2279 43.5793 44.0916C43.5913 43.95 43.5865 43.7964 43.5865 43.638C43.5865 43.318 43.5865 42.9728 43.5865 42.6024C43.5865 41.8596 43.5865 41.0136 43.5865 40.0824C43.5865 39.1512 43.5865 38.124 43.5865 37.0248V36.1848C43.5805 35.9016 43.6105 35.6088 43.5037 35.3388C43.4035 35.0631 43.2182 34.8265 42.9745 34.6632C42.7219 34.4977 42.423 34.417 42.1213 34.4328H34.0813C33.7329 34.4334 33.3978 34.5668 33.1443 34.8058C32.8908 35.0448 32.738 35.3714 32.7169 35.7192C32.7085 36.4104 32.7169 37.098 32.7169 37.7688C32.7169 39.114 32.7169 40.4088 32.7169 41.6484C32.7169 42.2668 32.7169 42.8688 32.7169 43.4544V43.8912C32.7134 44.0322 32.7308 44.1729 32.7685 44.3088C32.8435 44.5745 32.9965 44.8115 33.2077 44.9892C33.3114 45.0742 33.426 45.1449 33.5485 45.1992C33.6698 45.2498 33.7974 45.2837 33.9277 45.3C34.0561 45.3132 34.1881 45.3096 34.3189 45.3108H34.6801H36.1477L40.5757 45.3204L41.7757 45.3264H42.0889H42.1957C42.1957 45.3264 42.1597 45.3264 42.0889 45.3264H41.7757L40.5757 45.3324L36.1477 45.342L34.6801 45.36H34.2937C34.1641 45.36 34.0321 45.36 33.8965 45.3504C33.7614 45.3333 33.6291 45.2986 33.5029 45.2472C33.3741 45.1906 33.2531 45.1176 33.1429 45.03C32.9234 44.8455 32.7645 44.5992 32.6869 44.3232C32.647 44.1832 32.6284 44.038 32.6317 43.8924V43.4556C32.6317 42.87 32.6317 42.268 32.6317 41.6496C32.6317 40.4136 32.6317 39.1152 32.6317 37.77C32.6317 37.0968 32.6317 36.4152 32.6317 35.7168C32.6534 35.3533 32.8131 35.0119 33.078 34.7621C33.3429 34.5123 33.6932 34.3731 34.0573 34.3728H42.0973C42.4101 34.3572 42.7198 34.4412 42.9817 34.6128C43.2352 34.7829 43.4274 35.0298 43.5301 35.3172C43.582 35.4563 43.61 35.6032 43.6129 35.7516C43.6129 35.8968 43.6129 36.0396 43.6129 36.1812C43.6129 36.466 43.6129 36.746 43.6129 37.0212C43.6129 38.1204 43.6129 39.144 43.6129 40.0788C43.6129 41.0136 43.6129 41.8596 43.6129 42.5988C43.6129 42.9708 43.6129 43.3188 43.6129 43.6344C43.6129 43.7928 43.6129 43.9452 43.6021 44.0916C43.585 44.23 43.5486 44.3653 43.4941 44.4936C43.4123 44.6792 43.2915 44.8451 43.14 44.9798C42.9884 45.1146 42.8096 45.2152 42.6157 45.2748C42.5151 45.3035 42.4117 45.3215 42.3073 45.3288L42.2041 45.3372Z" fill="#E0E0E0"/>
<path d="M43.0804 41.8968C43.0804 41.8968 41.3728 37.2732 41.1988 37.0968C41.0742 36.9929 40.9351 36.9076 40.786 36.8436C40.7019 36.8002 40.6149 36.7625 40.5256 36.7308L40.5076 36.7236C40.0204 36.5448 39.2572 36.3636 39.2572 36.3636C39.2572 36.3636 39.0628 37.026 38.1376 37.074C37.2136 37.026 37.0192 36.3636 37.0192 36.3636C37.0192 36.3636 36.256 36.5496 35.7688 36.7236L35.7508 36.7308C35.6616 36.7625 35.5746 36.8002 35.4904 36.8436C35.3413 36.9076 35.2023 36.9929 35.0776 37.0968C34.9036 37.2696 33.3232 41.9472 33.3232 41.9472L34.6804 42.4164L35.926 39.24L35.806 43.374H40.486L40.3456 39.24L41.7964 42.5424L43.0804 41.8968Z" fill="#FF725E"/>
<path d="M40.7222 38.04C40.7222 38.058 39.5726 38.0712 38.1542 38.0712C36.7358 38.0712 35.5874 38.058 35.5874 38.04C35.5874 38.022 36.7358 38.01 38.1542 38.01C39.5726 38.01 40.7222 38.0256 40.7222 38.04Z" fill="white"/>
<path d="M40.3587 39.6288C40.3017 39.6386 40.2438 39.6426 40.1859 39.6408L39.7131 39.6504C39.3147 39.6564 38.7639 39.66 38.1531 39.66C37.5423 39.66 36.9939 39.66 36.5931 39.6504L36.1215 39.6408C36.0637 39.6426 36.0058 39.6386 35.9487 39.6288C36.0059 39.6198 36.0637 39.6158 36.1215 39.6168L36.5931 39.6072C36.9915 39.6012 37.5423 39.5976 38.1531 39.5976C38.7639 39.5976 39.3123 39.5976 39.7131 39.6072L40.1859 39.6168C40.2438 39.6158 40.3016 39.6198 40.3587 39.6288Z" fill="white"/>
<path d="M40.3587 41.1336C40.3016 41.1426 40.2438 41.1467 40.1859 41.1456L39.7131 41.1552C39.3147 41.1552 38.7639 41.1636 38.1531 41.1636C37.5423 41.1636 36.9939 41.1636 36.5931 41.1552L36.1215 41.1456C36.0637 41.1467 36.0059 41.1426 35.9487 41.1336C36.0058 41.1238 36.0637 41.1198 36.1215 41.1216L36.5931 41.1108C36.9915 41.1108 37.5423 41.1024 38.1531 41.1024C38.7639 41.1024 39.3123 41.1024 39.7131 41.1108L40.1859 41.1216C40.2438 41.1198 40.3017 41.1238 40.3587 41.1336Z" fill="white"/>
<path d="M40.3587 42.6372C40.3017 42.647 40.2438 42.651 40.1859 42.6492L39.7131 42.6588C39.3147 42.6648 38.7639 42.6684 38.1531 42.6684C37.5423 42.6684 36.9939 42.6684 36.5931 42.6588L36.1215 42.6492C36.0637 42.651 36.0058 42.647 35.9487 42.6372C36.0058 42.6274 36.0637 42.6234 36.1215 42.6252L36.5931 42.6156C36.9915 42.6096 37.5423 42.606 38.1531 42.606C38.7639 42.606 39.3123 42.606 39.7131 42.6156L40.1859 42.6252C40.2438 42.6234 40.3017 42.6274 40.3587 42.6372Z" fill="white"/>
<path d="M35.9259 40.2684C35.9116 40.143 35.9072 40.0166 35.9126 39.8904C35.9126 39.6564 35.9127 39.3288 35.9223 38.9604V38.9724L35.8562 38.8092C35.705 38.4288 35.5707 38.082 35.4771 37.8312C35.4291 37.7052 35.3919 37.6032 35.3679 37.5324C35.3527 37.4962 35.3418 37.4583 35.3354 37.4196C35.3354 37.4196 35.3595 37.4544 35.3907 37.5228C35.4219 37.5912 35.4651 37.6908 35.5167 37.8144C35.6223 38.0616 35.7627 38.4048 35.9139 38.7864C35.9367 38.8416 35.9583 38.8968 35.9787 38.9496V38.9556V38.9616C35.9703 39.33 35.9595 39.6564 35.9487 39.8916C35.9504 40.0176 35.9428 40.1436 35.9259 40.2684Z" fill="#263238"/>
<path d="M40.3371 40.2684C40.317 40.1438 40.3073 40.0178 40.3083 39.8916C40.2975 39.6516 40.2867 39.33 40.2783 38.9616V38.9556V38.9496C40.2987 38.8968 40.3203 38.8416 40.3431 38.7864C40.4943 38.4048 40.6359 38.0664 40.7403 37.8144C40.7919 37.6944 40.8351 37.5912 40.8663 37.5228C40.8975 37.4544 40.9167 37.4172 40.9215 37.4196C40.9151 37.4583 40.9043 37.4962 40.8891 37.5324C40.8651 37.6032 40.8279 37.7052 40.7811 37.8312C40.6863 38.082 40.5519 38.4312 40.4007 38.8092L40.3347 38.9724V38.9604C40.3419 39.3288 40.3455 39.6564 40.3443 39.8904C40.3513 40.0164 40.3489 40.1428 40.3371 40.2684Z" fill="#263238"/>
<path d="M41.9511 38.9448C41.7268 39.0829 41.4921 39.2032 41.2491 39.3048C41.014 39.4252 40.7701 39.5275 40.5195 39.6108C40.7442 39.4727 40.9793 39.3523 41.2227 39.2508C41.4571 39.1297 41.7006 39.0274 41.9511 38.9448Z" fill="white"/>
<path d="M42.4636 40.2972C42.2481 40.4277 42.0226 40.5409 41.7892 40.6356C41.5638 40.7494 41.3294 40.8446 41.0884 40.92C41.3038 40.7894 41.5293 40.6763 41.7628 40.5816C41.9882 40.4677 42.2226 40.3726 42.4636 40.2972Z" fill="white"/>
<path d="M35.7602 39.5532C35.2954 39.3349 34.8492 39.0793 34.4258 38.7888C34.6623 38.891 34.8906 39.0114 35.1086 39.1488C35.3361 39.2662 35.554 39.4015 35.7602 39.5532Z" fill="white"/>
<path d="M35.238 40.9848C34.7673 40.8152 34.3117 40.6065 33.876 40.3608C34.1147 40.4362 34.3467 40.5313 34.5696 40.6452C34.8015 40.7394 35.0251 40.853 35.238 40.9848Z" fill="white"/>
<path d="M37.7197 38.64C37.8478 38.619 37.9776 38.6105 38.1073 38.6148L38.0821 38.64C38.0821 38.4816 38.0761 38.28 38.0761 38.0688C38.0761 37.8036 38.0761 37.5648 38.0845 37.3908C38.081 37.297 38.0886 37.2032 38.1073 37.1112C38.1244 37.2034 38.1317 37.2971 38.1289 37.3908C38.1289 37.5648 38.1373 37.8036 38.1373 38.0688C38.1373 38.2836 38.1373 38.4816 38.1313 38.64V38.6652H38.1073C37.9776 38.669 37.8478 38.6606 37.7197 38.64Z" fill="#263238"/>
<path d="M37.9299 37.7004C37.9302 37.7214 37.9242 37.742 37.9126 37.7595C37.9011 37.7771 37.8847 37.7908 37.8653 37.7989C37.846 37.8071 37.8246 37.8093 37.804 37.8052C37.7834 37.8012 37.7645 37.7911 37.7497 37.7763C37.7348 37.7614 37.7248 37.7425 37.7207 37.7219C37.7167 37.7013 37.7189 37.68 37.727 37.6606C37.7352 37.6413 37.7489 37.6248 37.7664 37.6133C37.784 37.6018 37.8046 37.5958 37.8255 37.596C37.8532 37.596 37.8798 37.607 37.8994 37.6266C37.9189 37.6462 37.9299 37.6727 37.9299 37.7004Z" fill="#E0E0E0"/>
<path d="M37.9299 38.3496C37.9299 38.3706 37.9237 38.391 37.9121 38.4084C37.9004 38.4258 37.8838 38.4393 37.8645 38.4473C37.8451 38.4553 37.8238 38.4573 37.8033 38.4531C37.7828 38.4489 37.764 38.4387 37.7493 38.4239C37.7345 38.409 37.7246 38.39 37.7206 38.3695C37.7167 38.3489 37.719 38.3276 37.7271 38.3084C37.7353 38.2891 37.749 38.2727 37.7666 38.2612C37.7841 38.2498 37.8046 38.2438 37.8256 38.244C37.8394 38.244 37.853 38.2468 37.8658 38.2521C37.8785 38.2574 37.8901 38.2652 37.8998 38.275C37.9095 38.2848 37.9172 38.2965 37.9224 38.3093C37.9275 38.3221 37.9301 38.3358 37.9299 38.3496Z" fill="#E0E0E0"/>
<path d="M8.13227 20.886V25.2708C8.13227 26.016 9.02627 27.3528 10.2059 27.3H10.3019C11.3207 27.18 10.7411 25.9656 10.7411 25.2696C10.7411 24.9396 10.7411 24.6636 10.7411 24.63C10.7411 24.63 11.8583 24.5256 11.9411 23.4216C11.9807 22.8876 11.9723 21.7812 11.9531 20.7816C11.9429 20.2634 11.7379 19.768 11.3791 19.394C11.0202 19.02 10.5336 18.7948 10.0163 18.7632L9.90947 18.7572C8.75147 18.7536 8.10347 19.7316 8.13227 20.886Z" fill="#FFBF9D"/>
<path d="M10.74 24.6312C10.23 24.5996 9.73975 24.4222 9.32764 24.12C9.32764 24.12 9.62884 24.9492 10.7376 24.9168L10.74 24.6312Z" fill="#FF9A6C"/>
<path d="M10.068 21.2556C10.0464 21.2784 9.91803 21.1776 9.73323 21.1752C9.54843 21.1728 9.41163 21.264 9.39123 21.2412C9.37083 21.2184 9.40443 21.1896 9.46443 21.1464C9.5447 21.0909 9.6405 21.0623 9.73803 21.0648C9.83465 21.0662 9.92819 21.099 10.0044 21.1584C10.0608 21.204 10.08 21.246 10.068 21.2556Z" fill="#263238"/>
<path d="M10.0944 21.7716C10.092 21.8105 10.0746 21.8468 10.046 21.8732C10.0174 21.8996 9.97974 21.9139 9.94083 21.9132C9.92172 21.9135 9.90274 21.9101 9.88499 21.903C9.86724 21.8959 9.85108 21.8853 9.83746 21.8719C9.82383 21.8585 9.81301 21.8425 9.80562 21.8249C9.79823 21.8073 9.79443 21.7883 9.79443 21.7692C9.7966 21.7302 9.81381 21.6935 9.84245 21.6669C9.87109 21.6402 9.90893 21.6257 9.94803 21.6264C9.9672 21.6263 9.98621 21.6299 10.004 21.6371C10.0217 21.6444 10.0379 21.655 10.0515 21.6685C10.0651 21.682 10.0759 21.6981 10.0833 21.7158C10.0906 21.7335 10.0944 21.7525 10.0944 21.7716Z" fill="#263238"/>
<path d="M10.5464 22.5372C10.6375 22.5147 10.731 22.5034 10.8248 22.5036C10.8692 22.5036 10.91 22.4964 10.9196 22.4676C10.9258 22.4228 10.9183 22.3772 10.898 22.3368C10.8644 22.2288 10.8284 22.116 10.79 21.9984C10.6412 21.5184 10.5356 21.1224 10.55 21.1164C10.5644 21.1104 10.7072 21.4968 10.856 21.978C10.892 22.098 10.9256 22.2096 10.958 22.3176C10.9831 22.3714 10.9873 22.4325 10.97 22.4892C10.9628 22.504 10.9524 22.5169 10.9395 22.5271C10.9266 22.5373 10.9116 22.5444 10.8956 22.548C10.8709 22.5513 10.8459 22.5513 10.8212 22.548C10.7295 22.5559 10.6372 22.5522 10.5464 22.5372Z" fill="#263238"/>
<path d="M9.98124 20.6556C9.96444 20.6964 9.81564 20.6676 9.63804 20.6784C9.46044 20.6892 9.31644 20.73 9.29484 20.6916C9.28524 20.6724 9.31284 20.634 9.37284 20.5968C9.45191 20.5519 9.54036 20.526 9.63118 20.5212C9.72199 20.5164 9.81267 20.5328 9.89604 20.5692C9.95964 20.6004 9.98844 20.64 9.98124 20.6556Z" fill="#263238"/>
<path d="M11.7419 20.8068C11.7227 20.8404 11.5775 20.8068 11.4035 20.8068C11.2295 20.8068 11.0831 20.8272 11.0639 20.7924C11.0555 20.7768 11.0843 20.7456 11.1455 20.7192C11.227 20.6849 11.3152 20.6693 11.4035 20.6736C11.4929 20.6746 11.5809 20.6951 11.6615 20.7336C11.7215 20.76 11.7503 20.7912 11.7419 20.8068Z" fill="#263238"/>
<path d="M8.17324 21.7104C8.15404 21.7008 7.42684 21.4392 7.40524 22.1964C7.38364 22.9536 8.14684 22.8192 8.14924 22.7964C8.15164 22.7736 8.17324 21.7104 8.17324 21.7104Z" fill="#FFBF9D"/>
<path d="M7.92606 22.5036C7.92606 22.5036 7.91286 22.5132 7.89006 22.5228C7.85838 22.5349 7.82335 22.5349 7.79166 22.5228C7.74374 22.4902 7.70529 22.4455 7.68021 22.3932C7.65513 22.341 7.64432 22.283 7.64886 22.2252C7.64882 22.1603 7.6636 22.0963 7.69206 22.038C7.69954 22.0144 7.71279 21.9931 7.7306 21.9759C7.74841 21.9587 7.77022 21.9462 7.79406 21.9396C7.80934 21.9358 7.82548 21.9376 7.83956 21.9446C7.85365 21.9517 7.86475 21.9635 7.87086 21.978C7.88046 21.9996 7.87086 22.014 7.87926 22.0152C7.88766 22.0164 7.89606 22.0032 7.89006 21.972C7.88684 21.9533 7.87706 21.9362 7.86246 21.924C7.85228 21.9158 7.84058 21.9096 7.82802 21.9059C7.81545 21.9022 7.80229 21.901 7.78926 21.9024C7.75814 21.9076 7.72887 21.9207 7.70428 21.9404C7.67969 21.9602 7.6606 21.9859 7.64886 22.0152C7.6143 22.0798 7.59616 22.1519 7.59606 22.2252C7.59007 22.2929 7.60432 22.3609 7.637 22.4205C7.66969 22.4801 7.71934 22.5287 7.77966 22.56C7.79959 22.5664 7.82066 22.5683 7.8414 22.5656C7.86213 22.5629 7.88202 22.5556 7.89966 22.5444C7.92006 22.5228 7.92846 22.506 7.92606 22.5036Z" fill="#FF9A6C"/>
<path d="M7.15176 20.496C7.30656 20.2272 7.34016 19.908 7.42176 19.6092C7.50336 19.3104 7.66176 19.0008 7.95816 18.8892H7.96536C8.22576 18.7812 8.54976 18.7692 8.76696 18.9552C8.81496 18.5616 9.15696 18.246 9.53976 18.1404C9.99606 18.0459 10.4695 18.0779 10.909 18.2328C11.1946 18.3432 11.473 18.5748 11.8114 18.9168C11.9548 19.0597 12.0857 19.2146 12.2026 19.38L12.5494 20.4072L12.2698 20.9508C12.253 20.988 12.235 21.0252 12.2146 21.0612L11.9746 22.2036C11.9542 21.894 11.9638 20.8128 11.9446 20.502C11.7107 20.4976 11.4802 20.446 11.2667 20.3504C11.0533 20.2547 10.8614 20.1169 10.7026 19.9452C10.531 19.7592 10.3942 19.5252 10.1662 19.416C9.87216 19.2744 9.52416 19.3836 9.21696 19.4952L9.23016 19.4832C9.06788 19.5595 8.92229 19.6672 8.80176 19.8C8.87916 20.413 8.82391 21.0354 8.63976 21.6252C8.61216 21.714 8.53536 21.8964 8.44896 21.93C8.27976 21.9984 8.23176 21.8256 8.12856 21.7344C8.03725 21.6742 7.92744 21.6487 7.81896 21.6624C7.72932 21.4064 7.65558 21.1451 7.59816 20.88C7.49553 20.9129 7.38668 20.9215 7.28016 20.9052C7.31256 20.8272 7.34376 20.7492 7.37496 20.6652C7.33507 20.6955 7.2893 20.7172 7.24056 20.7288C7.2159 20.7344 7.19008 20.7321 7.16681 20.7222C7.14353 20.7123 7.12399 20.6953 7.11096 20.6736C7.07976 20.6196 7.11936 20.5524 7.15176 20.496Z" fill="#263238"/>
<path d="M9.11964 19.08C9.08094 19.1119 9.04445 19.1464 9.01044 19.1832C8.92155 19.2915 8.86315 19.4216 8.84124 19.56C8.82311 19.6525 8.81467 19.7466 8.81604 19.8408C8.81604 19.9428 8.82564 20.0508 8.83524 20.166C8.84658 20.2857 8.85059 20.4059 8.84724 20.526C8.8449 20.5905 8.83728 20.6547 8.82444 20.718C8.81532 20.7854 8.78932 20.8494 8.74884 20.904C8.72994 20.9257 8.70573 20.942 8.67859 20.9515C8.65144 20.961 8.62231 20.9632 8.59404 20.958C8.53959 20.9489 8.48974 20.9219 8.45244 20.8812C8.39161 20.7995 8.35389 20.7029 8.34324 20.6016H8.36604C8.33349 20.6849 8.28947 20.7633 8.23524 20.8344C8.18207 20.9003 8.1056 20.9433 8.02164 20.9544C7.9827 20.9595 7.94311 20.9533 7.90764 20.9364C7.87429 20.9209 7.84627 20.8959 7.82706 20.8645C7.80785 20.8331 7.79831 20.7968 7.79964 20.76C7.80046 20.728 7.81282 20.6973 7.83444 20.6736L7.84644 20.6832C7.78008 20.7598 7.6983 20.8216 7.60644 20.8644C7.58275 20.8758 7.55829 20.8854 7.53324 20.8932L7.50684 20.9004L7.53084 20.8896C7.54764 20.8824 7.57164 20.8728 7.60284 20.8572C7.68934 20.8109 7.7663 20.7486 7.82964 20.6736L7.84044 20.6844C7.8236 20.7083 7.81456 20.7368 7.81456 20.766C7.81456 20.7952 7.8236 20.8237 7.84044 20.8476C7.85681 20.8766 7.88146 20.9 7.91124 20.9148C7.94362 20.9292 7.97926 20.9345 8.01444 20.9304C8.09343 20.9174 8.16435 20.8744 8.21244 20.8104C8.26537 20.7412 8.3082 20.6649 8.33964 20.5836L8.35404 20.5476L8.36244 20.586C8.37311 20.6825 8.40913 20.7744 8.46684 20.8524C8.50005 20.8888 8.54433 20.9133 8.59284 20.922C8.6169 20.9266 8.64175 20.9248 8.66491 20.9168C8.68806 20.9088 8.70872 20.8949 8.72484 20.8764C8.76236 20.8252 8.78631 20.7654 8.79444 20.7024C8.80728 20.6404 8.8149 20.5773 8.81724 20.514C8.82101 20.3939 8.8174 20.2737 8.80644 20.154C8.79804 20.034 8.78964 19.9308 8.78964 19.8276C8.78938 19.7321 8.79903 19.6368 8.81844 19.5432C8.84246 19.4058 8.90296 19.2773 8.99364 19.1712C9.03012 19.1338 9.07274 19.103 9.11964 19.08Z" fill="#455A64"/>
<path d="M12.5433 20.1192L12.5349 20.1264L12.5073 20.1468C12.4925 20.158 12.4768 20.168 12.4605 20.1768C12.4392 20.1908 12.4167 20.2028 12.3933 20.2128C12.2462 20.2822 12.084 20.3136 11.9217 20.304C11.6804 20.2904 11.4481 20.2071 11.2533 20.064C11.0201 19.8877 10.825 19.6661 10.6797 19.4124C10.5969 19.2792 10.5297 19.1436 10.4565 19.0176C10.3875 18.8946 10.301 18.7822 10.1997 18.684C10.1103 18.5955 10.0001 18.5307 9.87929 18.4956C9.82459 18.4808 9.76789 18.4747 9.71129 18.4776C9.65937 18.4815 9.60816 18.492 9.55889 18.5088C9.47335 18.5393 9.39524 18.5876 9.32969 18.6504C9.28112 18.698 9.24059 18.7531 9.20969 18.8136C9.1848 18.8664 9.16627 18.922 9.15449 18.9792C9.15423 18.9756 9.15423 18.972 9.15449 18.9684V18.9336C9.16316 18.8923 9.17644 18.852 9.19409 18.8136C9.22462 18.7511 9.26515 18.6939 9.31409 18.6444C9.38019 18.5791 9.45959 18.5287 9.54689 18.4968C9.65336 18.4575 9.76921 18.4512 9.87929 18.4788C10.004 18.5148 10.1178 18.5811 10.2105 18.672C10.3117 18.7713 10.3978 18.8849 10.4661 19.0092C10.5405 19.1364 10.6077 19.272 10.6893 19.404C10.8344 19.6557 11.0287 19.8757 11.2605 20.0508C11.4521 20.1915 11.6797 20.2748 11.9169 20.2908C12.0768 20.3019 12.237 20.2739 12.3837 20.2092C12.4929 20.16 12.5409 20.1156 12.5433 20.1192Z" fill="#455A64"/>
<path d="M11.7596 21.306C11.738 21.3288 11.6096 21.228 11.4236 21.2244C11.2376 21.2208 11.102 21.3144 11.0828 21.2904C11.0636 21.2664 11.0948 21.2388 11.1548 21.1968C11.2343 21.144 11.3282 21.1172 11.4236 21.12C11.5202 21.1214 11.6137 21.1543 11.69 21.2136C11.7464 21.2544 11.7656 21.2964 11.7596 21.306Z" fill="#263238"/>
<path d="M11.5881 21.7716C11.5856 21.8105 11.5683 21.8468 11.5397 21.8732C11.5111 21.8996 11.4734 21.9139 11.4345 21.9132C11.4154 21.9135 11.3964 21.9101 11.3786 21.903C11.3609 21.8959 11.3447 21.8853 11.3311 21.8719C11.3175 21.8585 11.3067 21.8425 11.2993 21.8249C11.2919 21.8073 11.2881 21.7883 11.2881 21.7692C11.2903 21.7302 11.3075 21.6935 11.3361 21.6669C11.3647 21.6402 11.4026 21.6257 11.4417 21.6264C11.4609 21.6263 11.4799 21.6299 11.4976 21.6371C11.5154 21.6444 11.5315 21.655 11.5451 21.6685C11.5587 21.682 11.5695 21.6981 11.5769 21.7158C11.5843 21.7335 11.5881 21.7525 11.5881 21.7716Z" fill="#263238"/>
<path d="M12.1092 19.26C12.1517 19.3263 12.2098 19.381 12.2784 19.4196C12.3471 19.4581 12.4241 19.4791 12.5028 19.4808C12.5587 19.4689 12.6137 19.4529 12.6672 19.4328C12.7212 19.4652 12.708 19.65 12.6672 19.7016C12.6306 19.7449 12.5905 19.785 12.5472 19.8216C12.7296 19.9188 12.894 19.8708 13.0884 19.8C13.0691 19.9652 13.0068 20.1225 12.9076 20.256C12.8084 20.3895 12.6758 20.4946 12.5232 20.5608C12.4761 20.585 12.4238 20.5977 12.3708 20.5977C12.3178 20.5977 12.2656 20.585 12.2184 20.5608C12.146 20.5 12.0985 20.4145 12.0852 20.3208C12.0022 19.9936 11.9595 19.6575 11.958 19.32L12.1092 19.26Z" fill="#263238"/>
<path d="M10.5478 23.0112C10.5478 23.0208 10.5142 23.0448 10.4458 23.0556C10.3546 23.0676 10.2621 23.0486 10.183 23.0016C10.1035 22.9553 10.0422 22.8834 10.009 22.7976C9.98379 22.7328 9.98739 22.6896 9.99699 22.6872C10.0066 22.6848 10.0618 22.842 10.2214 22.9368C10.3244 22.9822 10.4352 23.0075 10.5478 23.0112Z" fill="#263238"/>
<path d="M11.377 54.3528V56.7288L16.267 56.706C16.231 56.226 13.5478 55.266 13.5478 55.266L13.6006 54.3564L11.377 54.3528Z" fill="#455A64"/>
<g opacity="0.6">
<path d="M12.168 55.0476C12.1202 55.0643 12.0803 55.098 12.0557 55.1422C12.0312 55.1865 12.0237 55.2382 12.0348 55.2876C12.0468 55.3357 12.0771 55.3771 12.1192 55.4032C12.1614 55.4292 12.2121 55.4377 12.2604 55.4268C12.3103 55.4088 12.352 55.3734 12.3778 55.3271C12.4036 55.2807 12.4118 55.2267 12.4008 55.1748C12.3834 55.1256 12.3472 55.0854 12.3002 55.0629C12.2532 55.0404 12.1992 55.0375 12.15 55.0548" fill="white"/>
</g>
<path d="M11.377 56.7288V56.3496L16.045 56.4036C16.045 56.4036 16.285 56.5464 16.267 56.706L11.377 56.7288Z" fill="#263238"/>
<path d="M13.5476 55.308C13.5476 55.3332 13.4276 55.3464 13.3076 55.428C13.1876 55.5096 13.1312 55.614 13.1096 55.6044C13.088 55.5948 13.1204 55.452 13.262 55.356C13.4036 55.26 13.5524 55.2852 13.5476 55.308Z" fill="#263238"/>
<path d="M14.1886 55.5288C14.1886 55.5516 14.0914 55.596 14.0122 55.7004C13.933 55.8048 13.9114 55.9176 13.8922 55.9164C13.873 55.9152 13.8514 55.776 13.9522 55.6476C14.053 55.5192 14.1874 55.5048 14.1886 55.5288Z" fill="#263238"/>
<path d="M14.4764 56.1336C14.4548 56.1396 14.42 56.0136 14.4764 55.8804C14.5328 55.7472 14.6456 55.6896 14.6564 55.71C14.6672 55.7304 14.5988 55.8036 14.552 55.9164C14.5052 56.0292 14.4992 56.1312 14.4764 56.1336Z" fill="#263238"/>
<path d="M13.4999 54.6324C13.4903 54.6552 13.3799 54.6228 13.2467 54.6324C13.1135 54.642 13.0067 54.6888 12.9959 54.6684C12.9851 54.648 13.0835 54.558 13.2359 54.5484C13.3883 54.5388 13.5119 54.6132 13.4999 54.6324Z" fill="#263238"/>
<path d="M13.5273 55.4148C13.5407 55.3677 13.5444 55.3182 13.5381 55.2696C13.5273 55.1358 13.4827 55.007 13.4085 54.8952C13.3573 54.8179 13.2922 54.7507 13.2165 54.6972C13.1938 54.6788 13.1667 54.6666 13.1379 54.6618C13.1091 54.6569 13.0795 54.6596 13.0521 54.6696C13.0234 54.6844 12.9993 54.7068 12.9824 54.7343C12.9655 54.7618 12.9564 54.7933 12.9561 54.8256C12.9641 54.9505 13.0093 55.0701 13.0859 55.1691C13.1624 55.2681 13.2668 55.342 13.3857 55.3812C13.5023 55.4181 13.6273 55.4196 13.7448 55.3854C13.8623 55.3513 13.967 55.283 14.0457 55.1892C14.0846 55.147 14.1144 55.0971 14.1333 55.0428C14.1429 55.0119 14.1429 54.9789 14.1333 54.948C14.1274 54.9326 14.1183 54.9186 14.1068 54.9068C14.0952 54.895 14.0814 54.8858 14.0661 54.8796C14.0153 54.8651 13.9608 54.8702 13.9137 54.894C13.7554 54.9692 13.6197 55.0847 13.5201 55.2288C13.4898 55.2666 13.467 55.3097 13.4529 55.356C13.5534 55.214 13.6796 55.0919 13.8249 54.996C13.8909 54.96 13.9761 54.9072 14.0457 54.93C14.061 54.9382 14.0726 54.9521 14.0777 54.9687C14.0829 54.9854 14.0813 55.0034 14.0733 55.0188C14.0559 55.0635 14.0298 55.1043 13.9965 55.1388C13.9251 55.2213 13.8313 55.2812 13.7264 55.3111C13.6215 55.3409 13.5101 55.3394 13.4061 55.3068C13.3022 55.2724 13.2104 55.2089 13.1417 55.1238C13.073 55.0387 13.0302 54.9356 13.0185 54.8268C13.0183 54.8061 13.0236 54.7857 13.0337 54.7676C13.0438 54.7495 13.0584 54.7344 13.0761 54.7236C13.0946 54.7175 13.1144 54.7162 13.1335 54.72C13.1526 54.7238 13.1705 54.7325 13.1853 54.7452C13.2558 54.7926 13.3172 54.8524 13.3665 54.9216C13.4408 55.0247 13.4898 55.144 13.5093 55.2696C13.5237 55.3632 13.5213 55.4148 13.5273 55.4148Z" fill="#263238"/>
<path d="M9.10546 54.4728V55.2408L9.05026 56.6196L7.21786 56.664L7.15186 55.2408L7.20586 54.3732L9.10546 54.4728Z" fill="#455A64"/>
<path d="M8.14402 56.52C8.13322 56.52 8.15962 56.0976 8.20282 55.5768C8.24602 55.056 8.29162 54.6336 8.30242 54.6336C8.31322 54.6336 8.28682 55.0548 8.24362 55.5756C8.20042 56.0964 8.15962 56.52 8.14402 56.52Z" fill="#263238"/>
<path d="M9.05766 56.3904L7.20605 56.4108V56.664L9.05885 56.6616L9.05766 56.3904Z" fill="#263238"/>
<path d="M7.21045 55.5972C7.22176 55.5703 7.23759 55.5456 7.25725 55.524C7.30616 55.4622 7.3608 55.4051 7.42045 55.3536C7.50969 55.275 7.60945 55.2091 7.71685 55.158C7.90487 55.0679 8.11654 55.0395 8.32168 55.0767C8.52682 55.114 8.71495 55.2151 8.85925 55.3656C8.91268 55.4237 8.95753 55.4892 8.99245 55.56C9.00733 55.5852 9.0175 55.6128 9.02245 55.6416C8.96565 55.5527 8.90142 55.4688 8.83045 55.3908C8.64589 55.2128 8.39923 55.1138 8.14285 55.1148C7.88695 55.1219 7.64109 55.2159 7.44565 55.3812C7.29205 55.5048 7.21765 55.6032 7.21045 55.5972Z" fill="#263238"/>
<path d="M13.2322 36.5496L13.0186 36.2148L6.16905 36.5364C6.03101 37.2763 5.96351 38.0277 5.96745 38.7804C5.96745 39.3804 6.26265 40.6092 6.26265 40.6092L6.58785 47.2248C6.65145 47.8248 6.69945 55.0248 6.69945 55.0248H9.41385L9.96825 44.9832C10.0258 43.8648 9.98385 42.1716 10.0402 40.9344L10.9726 44.7228L11.5726 47.3112C11.5726 47.3112 11.4526 48.3696 11.3326 49.8396C11.1538 51.9216 11.1382 54.9384 11.1382 54.9384L13.9258 54.9828C13.9258 54.9828 14.3122 51.426 14.6146 49.3488L14.875 46.8696C14.875 46.4556 14.695 45.4416 14.6626 45.2748L13.2322 36.5496Z" fill="#263238"/>
<path d="M10.6489 41.16C10.6078 41.1492 10.5677 41.1352 10.5289 41.118C10.4893 41.1024 10.4401 41.0832 10.3861 41.0568C10.3321 41.0304 10.2661 41.0028 10.2037 40.9632C10.1413 40.9236 10.0645 40.884 9.99005 40.8324C9.91565 40.7808 9.83885 40.7244 9.75965 40.662C9.41846 40.3844 9.13787 40.0396 8.93525 39.6492C8.89205 39.5568 8.84765 39.4716 8.81525 39.3876C8.78285 39.3036 8.75405 39.2256 8.73125 39.1476C8.70845 39.0696 8.69285 39.0072 8.67845 38.9484C8.66632 38.8981 8.65671 38.8472 8.64965 38.796C8.64144 38.7524 8.63663 38.7083 8.63525 38.664C8.64605 38.664 8.67005 38.85 8.76605 39.1368C8.79005 39.2076 8.81765 39.2856 8.85365 39.366C8.88965 39.4464 8.93165 39.5328 8.97365 39.6216C9.07759 39.8114 9.19806 39.9917 9.33365 40.1604C9.47111 40.3273 9.62332 40.4816 9.78845 40.6212C9.86645 40.6836 9.93965 40.7412 10.0129 40.7928C10.0861 40.8444 10.1557 40.8876 10.2205 40.9272C10.4749 41.0892 10.6525 41.1528 10.6489 41.16Z" fill="#455A64"/>
<path d="M18.9937 27.12C19.0804 26.9176 19.1782 26.7201 19.2865 26.5284C19.3609 26.4288 19.6969 26.0484 19.6969 26.0484C19.6969 26.0484 20.3713 25.7364 20.4805 25.7676C20.5458 25.7859 20.6087 25.8121 20.6677 25.8456L21.6085 25.1868C21.6085 25.1868 21.8293 25.0668 21.9157 25.2024C22.0021 25.338 21.8833 25.4328 21.8329 25.494C21.7825 25.5552 21.0997 26.1408 21.0997 26.1408L21.0745 26.1864C21.0745 26.1864 21.3289 26.2656 21.3301 26.4036C21.3227 26.507 21.2915 26.6072 21.2389 26.6964C21.2769 26.7269 21.3047 26.7683 21.3187 26.815C21.3326 26.8618 21.332 26.9116 21.3169 26.958L21.2665 27.1272C21.31 27.1567 21.3449 27.1973 21.3677 27.2447C21.3905 27.2922 21.4002 27.3448 21.3961 27.3972C21.3709 27.5664 20.9677 27.858 20.9677 27.858C20.9677 27.858 20.2345 28.1844 20.0821 28.1988C19.9297 28.2132 19.5841 28.3008 19.5841 28.3008L18.9937 27.12Z" fill="#FFBF9D"/>
<path d="M20.87 25.7028C20.8186 25.7535 20.7619 25.7986 20.7008 25.8372C20.5599 25.9425 20.4073 26.0311 20.246 26.1012C20.0793 26.1456 19.9167 26.2042 19.76 26.2764C19.7003 26.3134 19.6455 26.3578 19.5968 26.4084C19.5908 26.4084 19.6256 26.322 19.742 26.2452C19.8939 26.1627 20.055 26.0987 20.222 26.0544C20.3795 25.9849 20.5308 25.9022 20.6744 25.8072C20.7352 25.7646 20.8008 25.7296 20.87 25.7028Z" fill="#FF9A6C"/>
<path d="M21.0936 26.16C21.0996 26.16 21.0936 26.1876 21.0672 26.2116C21.0342 26.2406 20.9969 26.2645 20.9568 26.2824C20.8644 26.3244 20.7876 26.3448 20.7816 26.3328C20.7756 26.3208 20.8452 26.2764 20.9352 26.2356C20.9796 26.2152 21.018 26.1972 21.0456 26.1828C21.0732 26.1684 21.0876 26.1528 21.0936 26.16Z" fill="#FF9A6C"/>
<path d="M21.2396 26.67C21.2492 26.6796 21.2192 26.7288 21.164 26.7744C21.1088 26.82 21.056 26.8404 21.044 26.8284C21.032 26.8164 21.0752 26.778 21.1268 26.7348C21.1784 26.6916 21.2324 26.6604 21.2396 26.67Z" fill="#FF9A6C"/>
<path d="M21.2937 27.0936C21.3069 27.0936 21.2937 27.1704 21.2193 27.2256C21.1449 27.2808 21.0777 27.2856 21.0753 27.2724C21.0729 27.2592 21.1305 27.234 21.1869 27.186C21.2433 27.138 21.2805 27.0876 21.2937 27.0936Z" fill="#FF9A6C"/>
<path d="M19.0258 27.0216L17.7646 27.8376L18.2651 29.46L19.8694 28.1256L19.7722 27.4008L19.0258 27.0216Z" fill="#FFBF9D"/>
<path d="M5.45277 27.3756C5.45277 27.3756 4.63557 32.0148 4.67997 32.448C4.72437 32.8812 4.85517 33.5004 5.42997 33.69C5.73829 33.7831 6.06724 33.7831 6.37557 33.69L6.59157 30.9408L5.78397 27.9924L5.45277 27.3756Z" fill="#FFBF9D"/>
<path d="M11.8173 25.2804L12.4593 25.614L12.8469 29.2416L12.9741 30.4716L13.1745 33.8856C13.2345 34.182 13.5189 37.3332 13.5189 37.3332L5.84851 37.5168C5.96851 37.482 6.07291 36.1404 6.14371 35.8524L6.37051 33.8532L6.14371 30.9912C6.14371 30.9912 5.34691 27.4992 5.45251 27.2232C5.55811 26.9472 6.06691 26.3064 7.06291 25.6068C7.46011 25.3272 8.03611 24.978 8.03611 24.978L10.6617 24.9912L11.8173 25.2804Z" fill="#455A64"/>
<path d="M15.9936 28.8336C15.9936 28.8336 14.274 27.3132 13.6284 26.6736C12.9084 25.9536 12.3984 25.5936 12.1752 25.5792C12.1116 25.5792 11.4312 25.9392 11.4312 25.9392C11.4312 25.9392 11.2548 26.142 10.9512 27.1728C10.6476 28.2036 12.408 28.8756 12.408 28.8756L13.248 29.7156C13.4076 29.8608 14.5884 30.9156 15.4512 31.254C15.6816 31.3438 15.9322 31.3688 16.1758 31.3265C16.4195 31.2842 16.6469 31.1762 16.8336 31.014L19.4736 28.4652C19.068 27.3732 19.0272 27.0312 19.0272 27.0312" fill="#FFBF9D"/>
<path d="M5.45263 27.2232L4.67383 31.1652L6.58663 31.5372L6.11383 27.2784L5.45263 27.2232Z" fill="#455A64"/>
<path d="M5.75986 27.3492C5.77666 27.3492 5.91946 28.7616 6.07666 30.5076C6.23386 32.2536 6.35026 33.6696 6.33346 33.6708C6.31666 33.672 6.17386 32.2584 6.01546 30.5124C5.85706 28.7664 5.73826 27.3504 5.75986 27.3492Z" fill="#263238"/>
<path d="M10.7613 27.8772L13.5213 30.1908L15.2529 27.8172C15.2529 27.8172 13.1613 25.986 12.6633 25.7196C12.0477 25.3908 11.5833 25.1472 11.1033 25.734C10.8504 26.0229 10.6841 26.3772 10.6236 26.7563C10.5631 27.1355 10.6108 27.524 10.7613 27.8772Z" fill="#455A64"/>
<path d="M13.519 30.1908C13.4993 30.1809 13.4808 30.1688 13.4638 30.1548L13.3138 30.0408L12.7702 29.6148L10.9858 28.1844L10.951 28.1448C10.6702 27.8097 10.5251 27.3816 10.5442 26.9448C10.558 26.5888 10.6868 26.247 10.9114 25.9704C11.0601 25.7847 11.2499 25.636 11.4658 25.536C11.524 25.5085 11.5847 25.4864 11.647 25.47C11.6678 25.4626 11.6896 25.4582 11.7118 25.4568C11.7118 25.4628 11.6242 25.4844 11.4718 25.5576C11.2643 25.663 11.0831 25.8135 10.9414 25.998C10.7277 26.2692 10.6069 26.602 10.597 26.9472C10.581 27.3696 10.722 27.783 10.993 28.1076L11.0254 28.1448L12.7978 29.5848L13.3294 30.0276L13.471 30.1476C13.4886 30.1601 13.5047 30.1746 13.519 30.1908Z" fill="#263238"/>
<g opacity="0.3">
<path d="M11.0049 28.1604C11.0049 28.1604 11.6109 29.316 12.9741 30.4716L12.8925 29.6856L11.0049 28.1604Z" fill="black"/>
</g>
<path d="M10.484 33.3024C10.4449 33.3351 10.4022 33.3633 10.3568 33.3864C10.2728 33.4368 10.1492 33.5064 9.99681 33.594C9.69081 33.7644 9.26361 33.9924 8.78601 34.2324C8.30841 34.4724 7.86921 34.6764 7.54881 34.818C7.38921 34.8888 7.25841 34.9452 7.16841 34.9824C7.12238 35.0047 7.07411 35.022 7.02441 35.034C7.06628 35.0049 7.11089 34.98 7.15761 34.9596L7.53081 34.7784C7.84521 34.626 8.28081 34.4184 8.75841 34.1784C9.23601 33.9384 9.66561 33.7176 9.97641 33.5568L10.3448 33.3672C10.3888 33.3408 10.4355 33.3191 10.484 33.3024Z" fill="#263238"/>
</svg>
