<svg width="64" height="64" viewBox="0 0 64 64" fill="none" xmlns="http://www.w3.org/2000/svg">
<g clip-path="url(#clip0_4005_17240)">
<path d="M0 32C0 20.037 0 14.0554 2.5723 9.6C4.25746 6.68123 6.68123 4.25746 9.6 2.5723C14.0554 0 20.037 0 32 0C43.963 0 49.9446 0 54.4 2.5723C57.3187 4.25746 59.7426 6.68123 61.4277 9.6C64 14.0554 64 20.037 64 32C64 43.963 64 49.9446 61.4277 54.4C59.7426 57.3187 57.3187 59.7426 54.4 61.4277C49.9446 64 43.963 64 32 64C20.037 64 14.0554 64 9.6 61.4277C6.68123 59.7426 4.25746 57.3187 2.5723 54.4C0 49.9446 0 43.963 0 32Z" fill="#7F06EA"/>
<path fill-rule="evenodd" clip-rule="evenodd" d="M44.8706 12.1748C46.2189 10.8853 48.3444 10.8795 49.6996 12.1317L49.828 12.2561L50.2663 12.7157C54.7058 17.4909 56.3602 23.0557 55.9359 28.4904C55.5053 34.0018 52.962 39.1991 49.4138 43.3063C45.8677 47.4106 41.1335 50.6431 36.016 52.0459C30.8343 53.4663 25.1671 53.0135 20.2476 49.5407C16.0751 46.5949 14.4865 41.8344 14.3786 37.2098C12.0372 36.0615 9.57358 34.6341 6.98867 32.8984L6.30565 32.4346L6.16014 32.3296C4.69261 31.2085 4.35705 29.1335 5.42662 27.6103C6.49651 26.0869 8.57977 25.6736 10.1547 26.6419L10.3062 26.7402L10.9284 27.1634C12.4769 28.2031 13.9545 29.1045 15.3595 29.8827C16.2658 26.7023 17.7676 23.6483 19.7461 21.1312C22.7101 17.3602 27.1541 14.3444 32.5984 14.7944C37.5024 15.1999 41.1258 17.7296 42.996 21.2995C44.8071 24.7565 44.8338 28.9151 43.2511 32.4912C41.6375 36.1371 38.3616 39.1744 33.6495 40.4259C30.2583 41.3266 26.2855 41.2648 21.8028 40.0587V40.0603C20.0184 39.58 18.1484 38.9168 16.194 38.0554C15.7556 37.8621 15.374 38.1573 16.194 38.6698C18.5018 40.3079 21.753 41.6808 22.6938 42.1416C23.1384 42.8608 23.6898 43.4509 24.3218 43.897C27.2301 45.9501 30.6322 46.3263 34.1434 45.3637C37.7189 44.3835 41.3026 42.02 44.0823 38.8026C46.8597 35.5877 48.6504 31.7357 48.9455 27.9563C49.224 24.3903 48.1949 20.7269 45.0948 17.3978L44.7884 17.077L44.666 16.945C43.4461 15.564 43.5229 13.4643 44.8706 12.1748ZM32.0148 21.7042C29.7653 21.5183 27.3914 22.7024 25.2821 25.3859C23.6757 27.4298 22.4602 30.0853 21.8405 32.8179C26.2549 34.3271 29.5448 34.3373 31.8308 33.7303C34.477 33.0275 36.0639 31.4363 36.8276 29.7109C37.622 27.9155 37.5405 25.9592 36.7701 24.4888C36.0591 23.1314 34.6276 21.9203 32.0148 21.7042Z" fill="white"/>
</g>
<defs>
<clipPath id="clip0_4005_17240">
<rect width="64" height="64" fill="white"/>
</clipPath>
</defs>
</svg>
