<svg width="120" height="120" viewBox="0 0 120 120" fill="none" xmlns="http://www.w3.org/2000/svg">
<rect width="120" height="120" rx="60" fill="#F6F6F6"/>
<g clip-path="url(#clip0_4005_17245)">
<path d="M28 60C28 48.037 28 42.0554 30.5723 37.6C32.2575 34.6812 34.6812 32.2575 37.6 30.5723C42.0554 28 48.037 28 60 28C71.963 28 77.9446 28 82.4 30.5723C85.3187 32.2575 87.7426 34.6812 89.4277 37.6C92 42.0554 92 48.037 92 60C92 71.963 92 77.9446 89.4277 82.4C87.7426 85.3187 85.3187 87.7426 82.4 89.4277C77.9446 92 71.963 92 60 92C48.037 92 42.0554 92 37.6 89.4277C34.6812 87.7426 32.2575 85.3187 30.5723 82.4C28 77.9446 28 71.963 28 60Z" fill="#7F06EA"/>
<path fill-rule="evenodd" clip-rule="evenodd" d="M72.8706 40.1748C74.2189 38.8853 76.3444 38.8795 77.6996 40.1317L77.828 40.2561L78.2663 40.7157C82.7058 45.4909 84.3602 51.0557 83.9359 56.4904C83.5053 62.0018 80.962 67.1991 77.4138 71.3063C73.8677 75.4106 69.1335 78.6431 64.016 80.0459C58.8343 81.4663 53.1671 81.0135 48.2476 77.5407C44.0751 74.5949 42.4865 69.8344 42.3786 65.2098C40.0372 64.0615 37.5736 62.6341 34.9887 60.8984L34.3056 60.4346L34.1601 60.3296C32.6926 59.2085 32.3571 57.1335 33.4266 55.6103C34.4965 54.0869 36.5798 53.6736 38.1547 54.6419L38.3062 54.7402L38.9284 55.1634C40.4769 56.2031 41.9545 57.1045 43.3595 57.8827C44.2658 54.7023 45.7676 51.6483 47.7461 49.1312C50.7101 45.3602 55.1541 42.3444 60.5984 42.7944C65.5024 43.1999 69.1258 45.7296 70.996 49.2995C72.8071 52.7565 72.8338 56.9151 71.2511 60.4912C69.6375 64.1371 66.3616 67.1744 61.6495 68.4259C58.2583 69.3266 54.2855 69.2648 49.8028 68.0587V68.0603C48.0184 67.58 46.1484 66.9168 44.194 66.0554C43.7556 65.8621 43.374 66.1573 44.194 66.6698C46.5018 68.3079 49.753 69.6808 50.6938 70.1416C51.1384 70.8608 51.6898 71.4509 52.3218 71.897C55.2301 73.9501 58.6322 74.3263 62.1434 73.3637C65.7189 72.3835 69.3026 70.02 72.0823 66.8026C74.8597 63.5877 76.6504 59.7357 76.9455 55.9563C77.224 52.3903 76.1949 48.7269 73.0948 45.3978L72.7884 45.077L72.666 44.945C71.4461 43.564 71.5229 41.4643 72.8706 40.1748ZM60.0148 49.7042C57.7653 49.5183 55.3914 50.7024 53.2821 53.3859C51.6757 55.4298 50.4602 58.0853 49.8405 60.8179C54.2549 62.3271 57.5448 62.3373 59.8308 61.7303C62.477 61.0275 64.0639 59.4363 64.8276 57.7109C65.622 55.9155 65.5405 53.9592 64.7701 52.4888C64.0591 51.1314 62.6276 49.9203 60.0148 49.7042Z" fill="white"/>
</g>
<defs>
<clipPath id="clip0_4005_17245">
<rect width="64" height="64" fill="white" transform="translate(28 28)"/>
</clipPath>
</defs>
</svg>
